<?xml version="1.0" standalone="no"?>
<!DOCTYPE svg PUBLIC "-//W3C//DTD SVG 1.1//EN" "http://www.w3.org/Graphics/SVG/1.1/DTD/svg11.dtd" >
<svg xmlns="http://www.w3.org/2000/svg" xmlns:xlink="http://www.w3.org/1999/xlink" version="1.1">
<metadata>
Created by FontForge 20170731 at Thu Jun 24 00:00:32 2010
 By Aleksey,,,
Copyright (c) 2010 by Aleksandar Petkov Aleksandrov. All rights reserved.
</metadata>
<defs>
<font id="TYPOGRAPHPRO-SemiBold" horiz-adv-x="630" >
  <font-face 
    font-family="TYPOGRAPH PRO"
    font-weight="600"
    font-stretch="normal"
    units-per-em="1000"
    panose-1="0 0 0 0 0 0 0 0 0 0"
    ascent="750"
    descent="-250"
    x-height="480"
    cap-height="773"
    bbox="-58 -245 1207 1070"
    underline-thickness="50"
    underline-position="-200"
    unicode-range="U+0020-2122"
  />
<missing-glyph horiz-adv-x="500" 
 />
    <glyph glyph-name=".notdef" horiz-adv-x="500" 
 />
    <glyph glyph-name=".null" horiz-adv-x="0" 
 />
    <glyph glyph-name="nonmarkingreturn" horiz-adv-x="500" 
 />
    <glyph glyph-name="space" unicode=" " horiz-adv-x="349" 
 />
    <glyph glyph-name="space" unicode="&#xa0;" horiz-adv-x="349" 
 />
    <glyph glyph-name="exclam" unicode="!" horiz-adv-x="330" 
d="M227 242h-120v531h120v-531zM255 73q0 -36 -25.5 -61.5t-62.5 -25.5q-36 0 -61.5 25.5t-25.5 61.5q0 37 25.5 62.5t61.5 25.5q37 0 62.5 -25.5t25.5 -62.5z" />
    <glyph glyph-name="quotedbl" unicode="&#x22;" horiz-adv-x="423" 
d="M176 527h-120v246h120v-246v0v0zM367 527h-120v246h120v-246v0v0z" />
    <glyph glyph-name="numbersign" unicode="#" horiz-adv-x="700" 
d="M631 441h-104v-109h104v-120h-104v-105h-120v105h-110v-105h-120v105h-104v120h104v109h-104v120h104v105h120v-105h110v105h120v-105h104v-120zM407 332v109h-110v-109h110z" />
    <glyph glyph-name="dollar" unicode="$" horiz-adv-x="721" 
d="M605 381q57 -63 49 -151q-5 -60 -37 -108t-89 -80q-48 -26 -103 -37v-58h-120v57q-29 4 -57.5 13t-54.5 23q-38 20 -66.5 47.5t-45.5 59.5l107 54q7 -14 23 -28.5t38 -26t48 -19t54 -7.5h2h2q22 -2 53.5 4t61.5 23q60 35 65 92q3 37 -19 60q-20 23 -60.5 35t-92.5 12
q-14 0 -41 2t-59 10q-79 20 -121 65q-54 57 -49 140v1q5 84 60 139q48 48 122 65l30 6v54h120v-59q9 -2 17.5 -4t17.5 -4q50 -16 87 -43t57 -63l-105 -59q-10 17 -31 30.5t-48.5 21t-58.5 9t-59 -5.5q-85 -20 -89 -94q-1 -22 4.5 -33.5t11.5 -17.5q10 -11 26.5 -18.5
t34.5 -12.5t37 -7t36 -2q79 0 141.5 -21.5t100.5 -63.5z" />
    <glyph glyph-name="percent" unicode="%" horiz-adv-x="1200" 
d="M351 -18l-94 74l584 736l94 -74zM298 330q-46 0 -88 17.5t-75 50.5q-32 32 -49.5 74t-17.5 88q0 47 17.5 89t49.5 74q33 33 75 50.5t88 17.5q95 0 163 -68q32 -32 49.5 -74t17.5 -89q0 -46 -17.5 -88t-49.5 -74q-33 -33 -74.5 -50.5t-88.5 -17.5zM298 671q-23 0 -43 -9
t-35 -24t-23.5 -35t-8.5 -43t8.5 -43t23.5 -35t35 -23.5t43 -8.5t43 8.5t35 23.5t23.5 35t8.5 43t-8.5 43t-23.5 35t-35 24t-43 9zM903 -15q-47 0 -89 17.5t-74 50.5q-33 32 -50 74t-17 88q0 47 17 89t50 74q32 33 74 50.5t89 17.5q46 0 88 -17.5t75 -50.5q32 -32 49.5 -74
t17.5 -89q0 -46 -17.5 -88t-49.5 -74q-33 -33 -75 -50.5t-88 -17.5zM903 326q-23 0 -43 -9t-35 -24t-23.5 -35t-8.5 -43t8.5 -43t23.5 -35t35 -23.5t43 -8.5t43 8.5t35 23.5t23.5 35t8.5 43t-8.5 43t-23.5 35t-35 24t-43 9z" />
    <glyph glyph-name="ampersand" unicode="&#x26;" horiz-adv-x="764" 
d="M594 -60l-77 92q-67 -47 -152 -47q-54 0 -103.5 20.5t-87.5 58.5t-58.5 87.5t-20.5 103.5t20.5 103.5t58.5 87.5q19 19 39 32l-12 19q-29 46 -29 101q0 40 15 75t41.5 61t61.5 41.5t75 15.5t75 -15.5t61 -41.5t41.5 -61t15.5 -75q0 -79 -53 -135q-27 -28 -62 -43t-74 -15
h-4q-31 0 -58.5 -12t-47.5 -32t-32 -47.5t-12 -58.5t12 -58.5t32 -47.5t47.5 -32t58.5 -12t58.5 12t47.5 32t32 47.5t12 58.5h120q0 -74 -36 -135l87 -104zM365 671q-30 0 -51.5 -21.5t-21.5 -51.5q0 -21 11 -38l24 -37q9 1 18.5 1.5t19.5 0.5h5q29 0 48.5 21t19.5 52
q0 30 -21.5 51.5t-51.5 21.5z" />
    <glyph glyph-name="quotesingle" unicode="'" horiz-adv-x="254" 
d="M195 527h-120v246h120v-246v0v0z" />
    <glyph glyph-name="parenleft" unicode="(" horiz-adv-x="592" 
d="M552 -145q-101 0 -192 39q-45 19 -84 45t-73 61q-35 34 -61 73t-45 84q-39 91 -39 192q0 100 39 192q19 45 45 84t61 73q34 35 73 61t84 45q91 39 192 39v-120q-77 0 -145 -29.5t-119 -80.5t-80.5 -119t-29.5 -145t29.5 -145t80.5 -119t119 -80.5t145 -29.5v-120z" />
    <glyph glyph-name="parenright" unicode=")" horiz-adv-x="592" 
d="M50 -146v120q78 0 146 29.5t119 80.5t80.5 119t29.5 146t-29.5 146t-80.5 119t-119 80.5t-146 29.5v120q101 0 193 -39q88 -38 157 -106t107 -157q38 -93 38 -193t-38 -193q-38 -89 -107 -157q-34 -35 -73 -61t-84 -45q-92 -39 -193 -39z" />
    <glyph glyph-name="asterisk" unicode="*" horiz-adv-x="597" 
d="M512 624l-94 -59l94 -59l-63 -102l-85 53v-100h-120v100l-85 -53l-63 102l94 59l-94 59l63 102l85 -53v100h120v-100l85 53l63 -102v0z" />
    <glyph glyph-name="plus" unicode="+" horiz-adv-x="650" 
d="M582 487v-120h-198v-199h-120v199h-200v120h200v198h120v-198h198v0z" />
    <glyph glyph-name="comma" unicode="," horiz-adv-x="376" 
d="M170 -177l-106 56l128 241l106 -56l-128 -241v0v0z" />
    <glyph glyph-name="hyphen" unicode="-" horiz-adv-x="703" 
d="M639 250h-567v120h567v-120z" />
    <glyph glyph-name="period" unicode="." horiz-adv-x="295" 
d="M237 73q0 -36 -25.5 -61.5t-62.5 -25.5q-36 0 -61.5 25.5t-25.5 61.5q0 37 25.5 62.5t61.5 25.5q37 0 62.5 -25.5t25.5 -62.5z" />
    <glyph glyph-name="slash" unicode="/" horiz-adv-x="609" 
d="M138 -25l-104 60l438 763l104 -60l-438 -763v0v0z" />
    <glyph glyph-name="zero" unicode="0" horiz-adv-x="777" 
d="M398 -12q-69 0 -133 35q-60 32 -103 89q-45 57 -68 129t-23 150q0 79 23 150.5t68 128.5q43 56 103 90q65 34 133 34q67 0 132 -34q59 -34 104 -90q44 -57 67.5 -128.5t23.5 -150.5q0 -78 -23.5 -150t-67.5 -129q-45 -57 -104 -89q-64 -35 -132 -35zM398 674
q-39 0 -76 -20t-66 -58q-32 -41 -48.5 -93.5t-16.5 -111.5t16.5 -111.5t48.5 -93.5q29 -38 66 -58t76 -20t75.5 20t65.5 58q32 41 49 93.5t17 111.5t-17 111.5t-49 93.5q-29 38 -65.5 58t-75.5 20z" />
    <glyph glyph-name="one" unicode="1" horiz-adv-x="359" 
d="M279 0h-120v652h-84v120h204v-772v0v0z" />
    <glyph glyph-name="two" unicode="2" horiz-adv-x="693" 
d="M605 -1h-542l91 100q87 95 140.5 154.5t84 93t43 47t15.5 16.5q2 2 3 3.5t3 3.5q6 6 14.5 16.5t16.5 24.5t14 31t6 37q0 29 -11 55t-30.5 45.5t-45.5 30.5t-55 11q-49 0 -87 -29.5t-51 -76.5q-4 -16 -4 -36h-120q0 32 8 67q12 43 36 79t58 61.5t74.5 40t85.5 14.5
q53 0 100.5 -19.5t84.5 -57.5q38 -37 57.5 -84.5t19.5 -100.5v-1q0 -66 -34 -125q-14 -23 -27 -39t-21 -25q-2 -1 -2.5 -2t-1.5 -2l-1 -2l-1 -1q-3 -3 -21.5 -23.5t-46 -50t-60 -65.5t-64.5 -71h271v-120z" />
    <glyph glyph-name="three" unicode="3" horiz-adv-x="723" 
d="M575 467q40 -40 61 -91t21 -108t-21 -107.5t-61 -90.5t-90.5 -61t-107.5 -21q-53 0 -100.5 13t-85.5 39q-78 52 -107 139l114 38q17 -51 64.5 -80t114.5 -29q33 0 62 12.5t51 34.5t34.5 51t12.5 62t-12.5 62.5t-34.5 51.5t-51 34.5t-62 12.5q-18 0 -36.5 -2t-35.5 -7
l-136 -37l185 270h-226v120h454l-157 -228q87 -15 150 -78z" />
    <glyph glyph-name="four" unicode="4" horiz-adv-x="778" 
d="M607 -1h-120v123h-455l575 693v-573h109v-120h-109v-123v0v0zM288 242h199v241l-199 -241v0v0z" />
    <glyph glyph-name="five" unicode="5" horiz-adv-x="712" 
d="M550 483q42 -42 63.5 -94.5t21.5 -111.5t-21.5 -111.5t-63.5 -94.5t-94.5 -63.5t-111.5 -21.5q-44 0 -85 12.5t-76 35.5t-62.5 55.5t-44.5 73.5l111 47q20 -48 62.5 -76t94.5 -28q35 0 66 13.5t54.5 36.5t37 54.5t13.5 66.5t-13.5 66t-37 54.5t-54.5 37t-66 13.5
q-27 0 -53 -8.5t-43 -16.5l-109 -58v408h426v-120h-306v-99q44 14 85 14q59 0 111.5 -22t94.5 -63z" />
    <glyph glyph-name="six" unicode="6" horiz-adv-x="665" 
d="M582 361q21 -51 21 -106q0 -54 -20.5 -103.5t-58.5 -88.5q-38 -38 -87.5 -58.5t-104.5 -20.5q-54 0 -103.5 20.5t-88.5 58.5q-38 39 -58.5 88.5t-20.5 103.5q0 68 30 125l224 422l106 -56l-117 -221q7 1 14 1h14q55 0 105 -21q50 -22 86 -58q38 -38 59 -86zM332 104
q31 0 58.5 12t48 32.5t32.5 48t12 58.5t-12 58.5t-32.5 48t-48 32.5t-58.5 12q-43 0 -77 -20t-54 -55l-4 -7q-16 -34 -16 -69q0 -31 12 -58.5t32.5 -48t48 -32.5t58.5 -12z" />
    <glyph glyph-name="seven" unicode="7" horiz-adv-x="716" 
d="M234 -20l-104 60l354 612h-412v120h620l-458 -792v0v0z" />
    <glyph glyph-name="eight" unicode="8" horiz-adv-x="672" 
d="M529 443q38 -38 58.5 -87t20.5 -103t-20.5 -103t-58.5 -87t-87 -58.5t-103 -20.5t-103 20.5t-87 58.5t-58 87t-20 103t20 103t58 87q10 9 20 17t21 16q-42 51 -42 120q0 40 15 75t41 61t61 41t74 15q40 0 75 -15t61 -41t41 -61t15 -75q0 -35 -11 -65t-31 -55
q11 -8 21 -16t19 -17zM339 668q-29 0 -50 -21.5t-21 -50.5q0 -30 21 -51t50 -21q30 0 51 21t21 51q0 29 -21 50.5t-51 21.5zM339 104q31 0 58 11.5t47 32t32 47.5t12 58t-12 58t-32 47t-47 31.5t-58 11.5t-58 -11.5t-47 -31.5t-31.5 -47t-11.5 -58t11.5 -58t31.5 -47.5
t47 -32t58 -11.5z" />
    <glyph glyph-name="nine" unicode="9" horiz-adv-x="664" 
d="M600 523q0 -72 -35 -133l-215 -414l-106 56l117 226q-7 -1 -13.5 -1h-13.5q-54 0 -102 20t-86 58t-58 86t-20 102t20 102t58 86t86 58t102 20t102 -20t86 -58t58 -86t20 -102zM334 377q40 0 72 18t52 50l7 13v-1q15 30 15 66q0 30 -11.5 56.5t-31.5 46.5t-46.5 31.5
t-56.5 11.5t-57 -11.5t-46.5 -31.5t-31 -46.5t-11.5 -56.5t11.5 -57t31 -46.5t46.5 -31t57 -11.5z" />
    <glyph glyph-name="colon" unicode=":" horiz-adv-x="373" 
d="M277 201q0 -36 -25.5 -61.5t-62.5 -25.5q-36 0 -61.5 25.5t-25.5 61.5q0 37 25.5 62.5t61.5 25.5q37 0 62.5 -25.5t25.5 -62.5zM277 514q0 -36 -25.5 -61.5t-62.5 -25.5q-36 0 -61.5 25.5t-25.5 61.5q0 37 25.5 62.5t61.5 25.5q37 0 62.5 -25.5t25.5 -62.5z" />
    <glyph glyph-name="semicolon" unicode=";" horiz-adv-x="396" 
d="M291 509q0 -36 -25.5 -61.5t-62.5 -25.5q-36 0 -61.5 25.5t-25.5 61.5q0 37 25.5 62.5t61.5 25.5q37 0 62.5 -25.5t25.5 -62.5zM218 46l-111 46l82 201l111 -46z" />
    <glyph glyph-name="less" unicode="&#x3c;" horiz-adv-x="487" 
d="M278 75l-249 249l249 248l85 -85l-164 -163l164 -164l-85 -85v0v0z" />
    <glyph glyph-name="equal" unicode="=" horiz-adv-x="676" 
d="M587 429h-496v120h496v-120v0v0zM587 189h-496v120h496v-120v0v0z" />
    <glyph glyph-name="greater" unicode="&#x3e;" horiz-adv-x="485" 
d="M192 75l-84 85l163 164l-163 163l84 85l249 -248l-249 -249v0v0z" />
    <glyph glyph-name="question" unicode="?" horiz-adv-x="624" 
d="M163 192v225l82 -32q28 -10 54 -10q30 0 57 11.5t47.5 32t32 47.5t11.5 58q0 30 -11.5 57t-32 47.5t-47.5 32t-57 11.5q-44 0 -80 -23t-55 -62l-108 51q16 35 40.5 63t56.5 48q68 43 146 43q54 0 102.5 -20.5t86.5 -58.5t58.5 -86.5t20.5 -102.5t-20.5 -103t-58.5 -87
t-86.5 -58.5t-102.5 -20.5q-11 0 -16 1v-64h-120zM312 71q0 -36 -25.5 -61.5t-62.5 -25.5q-36 0 -61.5 25.5t-25.5 61.5q0 37 25.5 62.5t61.5 25.5q37 0 62.5 -25.5t25.5 -62.5z" />
    <glyph glyph-name="at" unicode="@" horiz-adv-x="887" 
d="M819 370q32 -76 32 -159q0 -50 -15 -94t-42 -73q-28 -29 -64 -43q-40 -14 -76 -7q-30 6 -54 25t-38 48q-14 -11 -28 -20.5t-31 -15.5q-38 -16 -76 -16q-41 0 -76.5 15.5t-62 42t-42 62t-15.5 76.5q0 82 57 139q27 28 63 42.5t76 14.5t76 -15q26 -11 45 -25v13h120v-258
q3 -7 5.5 -8.5t4.5 -1.5q5 -1 12.5 2t15.5 11v1q9 10 17 32.5t8 52.5q0 60 -22.5 112.5t-61.5 91.5t-91.5 61.5t-112.5 22.5t-112.5 -22.5t-91.5 -61.5t-61.5 -91.5t-22.5 -112.5t22.5 -112.5t61.5 -91.5t91.5 -61.5t112.5 -22.5q48 0 96 17l39 -114q-66 -23 -135 -23
q-83 0 -159 32q-36 16 -68.5 37.5t-60.5 50.5q-29 28 -50.5 60.5t-37.5 68.5q-32 78 -32 159q0 83 32 159q16 36 37.5 68.5t50.5 61.5q28 28 60.5 49.5t68.5 37.5q76 32 159 32q81 0 159 -32q36 -16 68.5 -37.5t60.5 -49.5q29 -29 50.5 -61.5t37.5 -68.5zM427 135
q16 0 30.5 6t26 16.5t18 24.5t6.5 29t-6.5 29t-18 24.5t-26 16.5t-30.5 6q-32 0 -54 -22t-22 -54q0 -31 22 -53.5t54 -22.5z" />
    <glyph glyph-name="A" unicode="A" horiz-adv-x="819" 
d="M671 -26l-103 216h-325l-102 -216l-108 51l372 788l374 -788zM300 310h211l-106 223z" />
    <glyph glyph-name="B" unicode="B" horiz-adv-x="770" 
d="M446 0h-354v772h301h3q75 0 131 -27q50 -24 78 -67q33 -50 33 -121q0 -79 -45 -133q6 -4 12 -7.5t12 -8.5q41 -31 62 -75q22 -43 22 -98q0 -51 -19.5 -96t-57.5 -77q-35 -30 -80.5 -46t-97.5 -16zM212 120h234q23 0 47 6t43.5 19.5t32 35.5t12.5 54q0 36 -17 57.5
t-42 33.5t-53.5 15.5t-51.5 3.5h-205v-225zM212 465h204q3 0 20.5 2.5t37.5 13.5q23 11 33.5 29.5t10.5 46.5q0 39 -14 55.5t-30 24.5q-11 5 -30 10t-48 5h-3h-2h-179v-187z" />
    <glyph glyph-name="C" unicode="C" horiz-adv-x="800" 
d="M459 -15q-81 0 -156 32q-72 30 -128 86t-86 128q-32 75 -32 156t32 157q30 73 86 127q55 55 128 87q37 16 76 23.5t80 7.5q83 0 157 -31q35 -16 67 -37t60 -49l-84 -85q-41 40 -92 61t-108 21q-58 0 -109.5 -22t-89.5 -60.5t-60.5 -90t-22.5 -109.5t22.5 -109.5
t60.5 -89.5t89.5 -60.5t109.5 -22.5q57 0 108 21t92 61l84 -84q-56 -56 -127 -86q-76 -32 -157 -32z" />
    <glyph glyph-name="D" unicode="D" horiz-adv-x="808" 
d="M356 0h-269v773h269q82 0 155 -28.5t128 -82.5q54 -54 83 -124t29 -148q0 -80 -27.5 -150t-80.5 -124q-53 -55 -126 -85q-76 -31 -161 -31zM207 120h149q61 0 111.5 20t87 55.5t56.5 85t20 109.5q0 57 -20.5 105t-57.5 83.5t-87 55t-110 19.5h-149v-533z" />
    <glyph glyph-name="E" unicode="E" horiz-adv-x="637" 
d="M559 653h-343v-190h332v-120h-332v-223h343v-120h-463v773h463v-120v0z" />
    <glyph glyph-name="F" unicode="F" horiz-adv-x="636" 
d="M576 653h-355v-223h342v-120h-342v-310h-120v773h475v-120v0z" />
    <glyph glyph-name="G" unicode="G" horiz-adv-x="916" 
d="M459 -19q-81 0 -157 32q-74 31 -129 87q-57 57 -87 129q-32 76 -32 158t32 158q15 36 37 68t50 61q55 55 129 87q74 31 157 31q106 0 197 -50q44 -24 80.5 -58t63.5 -76l-101 -66q-40 62 -103 96t-137 34q-59 0 -111 -22.5t-90.5 -61t-61 -90.5t-22.5 -111t22.5 -111
t61 -91t90.5 -61.5t111 -22.5q43 0 83 12t74 34.5t60.5 53t43.5 68.5h-286v120h432q0 -9 -0.5 -21t-2.5 -23l-4 -26q-11 -70 -46.5 -132t-89.5 -109q-56 -47 -123.5 -72t-140.5 -25z" />
    <glyph glyph-name="H" unicode="H" horiz-adv-x="855" 
d="M646 773h120v-773h-120v365h-415v-365h-120v773h120v-288h415v288v0z" />
    <glyph glyph-name="I" unicode="I" horiz-adv-x="330" 
d="M230 0h-120v773h120v-773v0v0z" />
    <glyph glyph-name="J" unicode="J" horiz-adv-x="700" 
d="M305 -15q-52 0 -90.5 12t-66 29.5t-45.5 36t-28 30.5l-3 2l92 78l2 -2q8 -10 19 -21.5t27.5 -21.5t39 -16.5t53.5 -6.5q120 0 160 71q18 31 21.5 62.5t3.5 47.5v9v478h120v-482v-2v-6q0 -10 -1 -28t-5 -40.5t-12 -48t-23 -50.5q-13 -23 -34 -46t-52.5 -42t-75.5 -31
t-102 -12z" />
    <glyph glyph-name="K" unicode="K" horiz-adv-x="869" 
d="M732 -27l-406 384l-113 -91v-266h-120v773h120v-353l471 378l75 -94l-338 -271l393 -372l-82 -88v0z" />
    <glyph glyph-name="L" unicode="L" horiz-adv-x="639" 
d="M566 0h-474v773h120v-653h354v-120v0v0z" />
    <glyph glyph-name="M" unicode="M" horiz-adv-x="1054" 
d="M523 -38l-253 505l-132 -486l-116 31l215 789l286 -571l285 572l217 -791l-116 -31l-134 488l-252 -506v0v0z" />
    <glyph glyph-name="N" unicode="N" horiz-adv-x="910" 
d="M809 -40l-580 565v-525h-120v809l580 -565v529h120v-813v0v0z" />
    <glyph glyph-name="O" unicode="O" horiz-adv-x="917" 
d="M461 -19q-82 0 -158 32q-72 30 -129 87t-87 129q-32 76 -32 158t32 158q30 72 87 129t129 87q76 32 158 32t158 -32q72 -30 129 -87t87 -129q32 -76 32 -158t-32 -158q-30 -72 -87 -129t-129 -87q-76 -32 -158 -32zM461 673q-59 0 -111 -22.5t-91 -61.5t-61.5 -91
t-22.5 -111t22.5 -111t61.5 -91t91 -61.5t111 -22.5t111 22.5t91 61.5t61.5 91t22.5 111t-22.5 111t-61.5 91t-91 61.5t-111 22.5z" />
    <glyph glyph-name="P" unicode="P" horiz-adv-x="727" 
d="M216 0h-120v773h256q68 0 123 -18t94 -51.5t60 -81t21 -105.5t-20 -110q-21 -50 -59 -88q-40 -39 -95 -59.5t-118 -21.5q-2 0 -4 0.5t-4 0.5h-134v-239zM216 359h136q42 -2 76.5 10.5t58.5 35.5q43 43 43 112q0 65 -45 100q-23 17 -57 26.5t-76 9.5h-136v-294z" />
    <glyph glyph-name="Q" unicode="Q" horiz-adv-x="936" 
d="M841 229q-25 -58 -68 -109l70 -78l-88 -80l-74 80q-29 -18 -57 -29q-73 -32 -158 -32t-158 32q-73 30 -130 87q-28 28 -49.5 60.5t-37.5 68.5q-32 76 -32 158q0 81 32 159q16 36 37.5 68.5t49.5 60.5q57 56 130 87q76 32 158 32t158 -32q73 -32 129 -87
q29 -28 50.5 -60.5t37.5 -68.5q32 -78 32 -159q0 -82 -32 -158zM466 101q36 0 69.5 8.5t63.5 23.5l-122 135l88 80l126 -138q29 37 45.5 81.5t16.5 95.5q0 59 -22.5 111.5t-61.5 91.5t-91.5 61.5t-111.5 22.5t-111.5 -22.5t-91.5 -61.5t-61.5 -91.5t-22.5 -111.5t22.5 -111
t61.5 -91t91.5 -61.5t111.5 -22.5z" />
    <glyph glyph-name="R" unicode="R" horiz-adv-x="727" 
d="M559 -25l-221 264h-126v-239h-120v773h256q128 0 208 -62q45 -34 67.5 -83.5t22.5 -110.5q0 -58 -20 -110q-21 -50 -59 -88q-40 -39 -91 -58l175 -208zM212 359h136q42 -2 76.5 10.5t58.5 35.5q43 43 43 112q0 66 -44 100q-23 17 -57 26.5t-77 9.5h-136v-294z" />
    <glyph glyph-name="S" unicode="S" horiz-adv-x="733" 
d="M366 -17h-18q-41 1 -82 11.5t-79 30.5q-39 21 -69 49.5t-47 60.5l107 55q8 -15 25 -30.5t40 -28t50.5 -20.5t57.5 -8h2h2q23 -2 56.5 5t64.5 24q66 37 70 99q3 40 -20 64q-22 24 -65 37.5t-97 13.5q-16 0 -44 2t-60 10q-80 20 -126 67q-26 29 -39 65.5t-11 79.5
q5 87 62 144q24 25 56 42t70 26q47 11 96 8.5t96 -16.5q51 -17 89.5 -44.5t59.5 -65.5l-104 -59q-10 17 -31 31t-50 23q-31 10 -64.5 11.5t-64.5 -5.5q-91 -21 -95 -102q-2 -23 4.5 -35.5t12.5 -19.5q23 -23 64 -32.5t79 -9.5q81 0 145.5 -23t104.5 -66q60 -64 52 -156
q-6 -67 -45 -119q-33 -45 -86 -75q-38 -21 -82.5 -32.5t-86.5 -11.5z" />
    <glyph glyph-name="T" unicode="T" horiz-adv-x="691" 
d="M648 773v-120h-245v-653h-120v653h-244v120h609v0z" />
    <glyph glyph-name="U" unicode="U" horiz-adv-x="900" 
d="M450 -15q-68 0 -118.5 14.5t-86.5 37.5t-60 51.5t-38 55.5q-16 30 -25 60.5t-13 57.5t-4.5 49t-0.5 34v428h120v-428q0 -10 0.5 -26.5t3 -36t8.5 -41t17 -41.5q50 -95 197 -95t197 95q11 20 17 41.5t8.5 41t3 36t0.5 26.5v428h120v-428q0 -12 -0.5 -34t-4.5 -49
t-13 -57.5t-25 -60.5q-14 -27 -38 -55.5t-60 -51.5t-86.5 -37.5t-118.5 -14.5z" />
    <glyph glyph-name="V" unicode="V" horiz-adv-x="811" 
d="M409 -39l-397 778l107 54l289 -568l288 568l107 -54l-394 -778v0v0z" />
    <glyph glyph-name="W" unicode="W" horiz-adv-x="1250" 
d="M886 -38l-263 560l-263 -560l-322 782l111 46l218 -530l256 545l255 -545l218 530l111 -46l-321 -782v0v0z" />
    <glyph glyph-name="X" unicode="X" horiz-adv-x="760" 
d="M728 46l-95 -74l-254 329l-254 -329l-95 74l273 353l-253 327l95 74l234 -303l233 303l95 -74l-252 -327l273 -353v0z" />
    <glyph glyph-name="Y" unicode="Y" horiz-adv-x="860" 
d="M816 732l-326 -434v-298h-120v298l-325 434l96 72l289 -386l290 386l96 -72v0z" />
    <glyph glyph-name="Z" unicode="Z" horiz-adv-x="803" 
d="M695 0h-638l458 652h-387v120h619l-459 -652h407v-120v0v0z" />
    <glyph glyph-name="bracketleft" unicode="[" horiz-adv-x="383" 
d="M329 -138h-239v974h238v-120h-118v-734h119v-120v0v0z" />
    <glyph glyph-name="backslash" unicode="\" horiz-adv-x="610" 
d="M474 -28l-442 769l104 60l442 -769l-104 -60v0v0z" />
    <glyph glyph-name="bracketright" unicode="]" horiz-adv-x="378" 
d="M289 -138h-239v120h119v734h-118v120h238v-974v0v0z" />
    <glyph glyph-name="asciicircum" unicode="^" horiz-adv-x="566" 
d="M434 529l-155 156l-156 -156l-85 84l241 242l240 -242l-85 -84v0v0z" />
    <glyph glyph-name="underscore" unicode="_" horiz-adv-x="709" 
d="M636 0h-567v120h567v-120v0v0z" />
    <glyph glyph-name="grave" unicode="`" horiz-adv-x="274" 
d="M114 577l-82 181l110 50l82 -181l-110 -50v0v0z" />
    <glyph glyph-name="a" unicode="a" horiz-adv-x="674" 
d="M614 480v-480h-120v65q-2 -2 -4.5 -5t-4.5 -5q-38 -37 -85 -56.5t-100 -19.5q-52 0 -99.5 19.5t-84.5 56.5t-56.5 84.5t-19.5 99.5q0 53 19.5 100t56.5 85q37 37 84.5 56.5t99.5 19.5q53 0 100 -19.5t85 -56.5q3 -4 9 -10v66h120zM300 99q29 0 55 11t45 30t30 44.5
t11 54.5t-11 55t-30 45t-45 30t-55 11t-54.5 -11t-44.5 -30t-30 -45t-11 -55t11 -54.5t30 -44.5t44.5 -30t54.5 -11z" />
    <glyph glyph-name="b" unicode="b" horiz-adv-x="666" 
d="M558 423q37 -37 56.5 -84t19.5 -99t-19.5 -99t-56.5 -83q-37 -37 -84 -56.5t-99 -19.5q-49 0 -94 17.5t-81 51.5v-51h-120v792h120v-362q36 34 81 51.5t94 17.5q52 0 99 -19.5t84 -56.5zM375 102q29 0 54.5 11t44 29.5t29.5 43.5t11 54t-11 54.5t-29.5 44t-44 29.5
t-54.5 11t-54 -11t-43.5 -29.5t-29.5 -44t-11 -54.5t11 -54t29.5 -43.5t43.5 -29.5t54 -11z" />
    <glyph glyph-name="c" unicode="c" horiz-adv-x="548" 
d="M312 -18q-52 0 -99 19t-84 56q-36 37 -55.5 84t-19.5 99t19.5 99t55.5 84q37 37 84 56t99 19t99 -19t84 -56l-85 -85q-40 40 -98 40q-29 0 -54 -11t-43.5 -29.5t-29.5 -44t-11 -53.5q0 -29 11 -54t29.5 -43.5t43.5 -29.5t54 -11q58 0 98 40l85 -85q-37 -37 -84 -56
t-99 -19z" />
    <glyph glyph-name="d" unicode="d" horiz-adv-x="667" 
d="M597 792v-792h-120v39q-35 -29 -77 -44t-88 -15q-52 0 -99 19.5t-84 56.5t-56.5 84t-19.5 99q0 53 19.5 100t56.5 84t84 56.5t99 19.5q46 0 88 -15t77 -44v352h120zM312 100q29 0 54.5 11t44.5 30t30 44t11 54t-11 54.5t-30 44.5t-44.5 30t-54.5 11t-54 -11t-44 -30
t-30 -44.5t-11 -54.5t11 -54t30 -44t44 -30t54 -11z" />
    <glyph glyph-name="e" unicode="e" 
d="M315 -23q-53 0 -100.5 19.5t-84.5 57.5q-38 37 -57.5 84.5t-19.5 100.5q0 54 19.5 101t57.5 85q37 38 84.5 57.5t100.5 19.5q54 0 102 -20.5t84 -56.5t56.5 -84t20.5 -102v-55h-405q17 -43 55.5 -70t86.5 -27q42 0 77 20.5t56 55.5l95 -55q-35 -59 -94 -95
q-62 -36 -134 -36zM173 294h285q-17 43 -55.5 70.5t-87.5 27.5q-48 0 -86.5 -27.5t-55.5 -70.5z" />
    <glyph glyph-name="f" unicode="f" horiz-adv-x="490" 
d="M468 725q-141 0 -202 -61q-17 -17 -26 -35.5t-13.5 -36.5t-5.5 -34t-1 -26h118v-120h-118v-411h-120v411h-71v120h71q0 15 1.5 39.5t9.5 54t24.5 61.5t45.5 62q96 96 287 96v-120v0z" />
    <glyph glyph-name="g" unicode="g" horiz-adv-x="669" 
d="M608 480v-427q0 -9 -1 -17.5t-2 -15.5q-1 -1 -1 -4v-1q-2 -11 -4.5 -21t-4.5 -20l-1 -2l-1 -2q0 -3 -1 -5q-1 -5 -4 -12v-1q-21 -64 -70 -108l-2 -2l-1 -1l-4.5 -4.5t-6.5 -5.5q-8 -5 -15.5 -10.5t-16.5 -10.5q-13 -8 -35 -18q-54 -21 -121 -25h-19h-24.5t-26.5 2h-2
l-21 4q-31 5 -55 16t-41 21l-1 1l-2 1q-2 2 -3.5 3t-3.5 2l68 99q1 -1 2 -1.5t2 -1.5h1q16 -9 28.5 -14.5t25.5 -7.5l15 -3q15 -1 27 -1.5t23 0.5q24 2 44.5 5.5t38.5 11.5q5 2 10.5 4.5t10.5 5.5q9 6 17 12q2 2 4 3.5t4 3.5q25 24 37 58q0 2 0.5 2.5t0.5 2.5l3 9
q2 8 3.5 15.5t2.5 14.5q1 1 1 5q1 2 1 5t1 5q-37 -34 -82 -52t-96 -18q-52 0 -99 19.5t-84 56.5t-56.5 84t-19.5 99q0 53 19.5 100t56.5 84t84 56.5t99 19.5q51 0 96.5 -18t81.5 -52v51h120zM310 100q29 0 54.5 11t44.5 30t30 44t11 54t-11 54.5t-30 44.5t-44.5 30t-54.5 11
t-54 -11t-44 -30t-30 -44.5t-11 -54.5t11 -54t30 -44t44 -30t54 -11z" />
    <glyph glyph-name="h" unicode="h" horiz-adv-x="666" 
d="M546 427q37 -38 56.5 -85t19.5 -99v-243h-120v243q0 29 -11 54.5t-30 44.5t-44.5 30t-54.5 11h-1q-31 0 -59.5 -12t-50.5 -31.5t-35.5 -44.5t-13.5 -52v-243h-2h-118h-2v792h120v-340q36 25 77.5 38t83.5 13h1q52 0 99 -19.5t85 -56.5z" />
    <glyph glyph-name="i" unicode="i" horiz-adv-x="281" 
d="M200 0h-120v480h120v-480zM226 632q0 -18 -7 -33.5t-18.5 -27.5t-27 -18.5t-33.5 -6.5q-36 0 -61 25t-25 61q0 18 6.5 33.5t18.5 27t27.5 18.5t33.5 7t33.5 -7t27 -18.5t18.5 -27t7 -33.5z" />
    <glyph glyph-name="j" unicode="j" horiz-adv-x="481" 
d="M150 -234h-136v120h136q27 0 52 13.5t44.5 36t31.5 51t12 59.5v434h120v-434q0 -51 -19.5 -101t-54.5 -90q-17 -20 -37.5 -36t-43.5 -28q-50 -25 -105 -25zM435 632q0 -18 -7 -33.5t-18.5 -27.5t-27 -18.5t-33.5 -6.5q-36 0 -61 25t-25 61q0 18 6.5 33.5t18.5 27
t27.5 18.5t33.5 7t33.5 -7t27 -18.5t18.5 -27t7 -33.5z" />
    <glyph glyph-name="k" unicode="k" horiz-adv-x="608" 
d="M485 -22l-215 223l-70 -54v-147h-120v792h120v-493l273 210l73 -96l-180 -138l205 -213l-86 -84v0z" />
    <glyph glyph-name="l" unicode="l" horiz-adv-x="282" 
d="M201 0h-120v792h120v-792v0v0z" />
    <glyph glyph-name="m" unicode="m" horiz-adv-x="973" 
d="M836 433q34 -34 51.5 -77.5t17.5 -91.5v-264h-120v264q0 25 -9 46.5t-25 38t-37 26t-45 9.5t-45 -9.5t-37 -26t-25 -38t-9 -46.5v-264h-120v264q0 25 -9 46.5t-25 38t-37 26t-45 9.5t-45 -9.5t-37 -26t-25 -38t-9 -46.5v-264h-11h-109h-1v500h110v-34q58 38 127 38
q48 0 90.5 -18t76.5 -53l9 -9l9 9q33 35 76 53t91 18t90.5 -18t76.5 -53z" />
    <glyph glyph-name="n" unicode="n" horiz-adv-x="664" 
d="M525 425q37 -38 56.5 -85t19.5 -99v-241h-120v241q0 29 -11 54.5t-30 44.5t-44.5 30t-54.5 11h-1q-29 0 -54.5 -11t-44.5 -30t-30 -44.5t-11 -54.5v-241h-10h-110v241v249h110v-37q68 48 150 48h1q52 0 99 -19.5t85 -56.5z" />
    <glyph glyph-name="o" unicode="o" 
d="M315 -22q-53 0 -100.5 19.5t-84.5 57.5q-38 37 -57.5 84.5t-19.5 100.5t19.5 100.5t57.5 84.5q37 38 84.5 57.5t100.5 19.5t100.5 -19.5t84.5 -57.5q38 -37 57.5 -84.5t19.5 -100.5t-19.5 -100.5t-57.5 -84.5q-37 -38 -84.5 -57.5t-100.5 -19.5zM315 382q-29 0 -55 -11
t-45.5 -30.5t-30.5 -45.5t-11 -55t11 -55t30.5 -45.5t45.5 -30.5t55 -11t55 11t45.5 30.5t30.5 45.5t11 55t-11 55t-30.5 45.5t-45.5 30.5t-55 11z" />
    <glyph glyph-name="p" unicode="p" horiz-adv-x="686" 
d="M556 423q37 -38 57 -85.5t20 -100.5t-20 -100.5t-57 -85.5q-38 -38 -85.5 -57.5t-100.5 -19.5q-48 0 -91.5 16t-78.5 46v-263h-120v707h120v-42q35 30 78.5 46t91.5 16q53 0 100.5 -19.5t85.5 -57.5zM370 94q30 0 56 11t45.5 30.5t30.5 45.5t11 56t-11 56t-30.5 45.5
t-45.5 30.5t-56 11t-56 -11t-45.5 -30.5t-30.5 -45.5t-11 -56t11 -56t30.5 -45.5t45.5 -30.5t56 -11z" />
    <glyph glyph-name="q" unicode="q" horiz-adv-x="695" 
d="M614 480v-707h-120v269q-37 -32 -82 -49.5t-95 -17.5q-53 0 -101 19.5t-86 57.5t-57.5 86t-19.5 101q0 54 19.5 102t57.5 85q38 38 86 58t101 20q50 0 95 -17.5t82 -50.5v44h120zM317 95q30 0 56.5 11.5t46 31t31 45.5t11.5 56t-11.5 56.5t-31 46t-46 31t-56.5 11.5
t-56 -11.5t-45.5 -31t-31 -46t-11.5 -56.5t11.5 -56t31 -45.5t45.5 -31t56 -11.5z" />
    <glyph glyph-name="r" unicode="r" horiz-adv-x="500" 
d="M357 502q34 0 71.5 -11t63.5 -28l-66 -100q-10 7 -31 13t-38 6q-33 0 -56.5 -7t-39 -17.5t-24.5 -23t-15 -23.5q-8 -17 -12 -34.5t-6 -33t-2.5 -29t-0.5 -20.5v-194h-1h-119h-1v490h120v-30q0 1 1 1q65 41 156 41z" />
    <glyph glyph-name="s" unicode="s" horiz-adv-x="525" 
d="M258 -21q-8 0 -11 1q-26 0 -55 7t-55.5 20t-48.5 32t-34 43l106 54q2 -2 8.5 -8t22.5 -14q28 -14 59 -14h2l2 -1q7 0 17.5 1t22 4.5t22.5 8.5t19 12q8 8 10.5 14t2.5 11q1 10 -1 14t-4 6q-8 8 -28.5 14.5t-58.5 6.5q-12 0 -32 1.5t-42.5 7.5t-46 17t-41.5 31
q-39 41 -36 100q3 55 38.5 93t95.5 52q32 8 66.5 7t66.5 -10q38 -11 66 -30.5t43 -45.5l-105 -59q-1 2 -9 8t-27 11q-37 11 -74 3q-29 -7 -35 -18.5t-6 -17.5q0 -5 1 -7l2 -4q8 -8 29.5 -13.5t45.5 -5.5q50 0 91 -11q53 -15 83 -48q43 -44 38 -110q-5 -62 -54 -107
q-34 -29 -77.5 -42.5t-78.5 -13.5z" />
    <glyph glyph-name="t" unicode="t" horiz-adv-x="400" 
d="M361 533v-120h-118v-412h-120v412h-81v120h81v259h120v-259h118v0z" />
    <glyph glyph-name="u" unicode="u" horiz-adv-x="674" 
d="M337 -29h-1q-113 0 -177 55q-79 67 -79 201v253h120v-253q0 -79 36 -110q32 -26 100 -26h1q46 0 73 13t41 33t18.5 44t4.5 46v253h120v-253q0 -62 -20 -113t-59 -84q-33 -29 -78.5 -44t-99.5 -15z" />
    <glyph glyph-name="v" unicode="v" horiz-adv-x="561" 
d="M283 -50l-265 495l106 56l159 -297l159 297l105 -56l-264 -495v0v0z" />
    <glyph glyph-name="w" unicode="w" horiz-adv-x="896" 
d="M634 -29l-187 314l-187 -314l-230 473l108 52l133 -273l176 297l177 -297l133 273l108 -52l-231 -473v0v0z" />
    <glyph glyph-name="x" unicode="x" horiz-adv-x="543" 
d="M506 52l-93 -76l-141 175l-141 -175l-94 76l158 194l-144 177l93 76l128 -158l127 158l94 -76l-144 -177l157 -194v0z" />
    <glyph glyph-name="y" unicode="y" horiz-adv-x="664" 
d="M534 496l105 -57l-376 -684l-105 58l105 191l-225 436l107 55l188 -364l201 365v0z" />
    <glyph glyph-name="z" unicode="z" horiz-adv-x="626" 
d="M529 0h-499l300 360h-217v120h473l-300 -360h243v-120v0v0z" />
    <glyph glyph-name="braceleft" unicode="{" horiz-adv-x="378" 
d="M224 427q0 -23 -6.5 -43t-17.5 -37q11 -17 17.5 -37t6.5 -43v-247q0 -8 5.5 -14t13.5 -6h79v-120h-79q-29 0 -54 11t-44 30t-30 44.5t-11 54.5v247q0 9 -5 14.5t-10 5.5h-58v120h58q5 0 10 5.5t5 14.5v250q0 29 11 54.5t30 44.5t44 30t54 11h79v-120h-79q-8 0 -13.5 -6
t-5.5 -14v-250z" />
    <glyph glyph-name="bar" unicode="|" horiz-adv-x="297" 
d="M208 -142h-120v978h120v-978v0v0z" />
    <glyph glyph-name="braceright" unicode="}" horiz-adv-x="396" 
d="M356 407v-120h-58q-5 0 -10.5 -5.5t-5.5 -14.5v-247q0 -29 -11 -54.5t-29.5 -44.5t-44 -30t-54.5 -11h-79v120h79q8 0 13.5 6t5.5 14v247q0 44 25 80q-25 36 -25 80v250q0 8 -5.5 14t-13.5 6h-79v120h79q29 0 54.5 -11t44 -30t29.5 -44.5t11 -54.5v-250q0 -9 5.5 -14.5
t10.5 -5.5h58z" />
    <glyph glyph-name="asciitilde" unicode="~" horiz-adv-x="492" 
d="M316 438q-31 0 -58 11.5t-48 32.5l-12 12q-9 9 -22 9q-4 0 -9.5 -1.5t-10.5 -6.5q-4 -4 -12 -13.5t-18 -21.5l-92 78q8 8 18.5 20l17.5 20q20 22 47.5 33t57.5 12h1q30 0 58 -11.5t49 -32.5l12 -12q5 -6 11 -7.5t10 -1.5q3 0 9 1.5t12 7.5q7 7 15 16t14 16l92 -76
q-3 -5 -14 -17.5t-22 -23.5q-22 -21 -49 -32.5t-57 -11.5z" />
    <glyph glyph-name="exclamdown" unicode="&#xa1;" horiz-adv-x="330" 
d="M110 530h120v-531h-120v531zM82 699q0 36 25.5 61.5t62.5 25.5q36 0 61.5 -25.5t25.5 -61.5q0 -37 -25.5 -62.5t-61.5 -25.5q-37 0 -62.5 25.5t-25.5 62.5z" />
    <glyph glyph-name="cent" unicode="&#xa2;" horiz-adv-x="548" 
d="M501 196q-57 -55 -131 -72v-124h-120v124q-75 17 -130 72q-38 38 -58.5 87.5t-20.5 103.5t20.5 103t58.5 87q27 28 60 46t70 26v124h120v-123q75 -17 131 -73l-85 -84q-43 43 -105 43q-31 0 -58.5 -12t-47.5 -32t-32 -47t-12 -58t12 -58.5t32 -47.5t47.5 -32t58.5 -12
q30 0 57 11.5t48 32.5l85 -85v0z" />
    <glyph glyph-name="sterling" unicode="&#xa3;" horiz-adv-x="639" 
d="M574 26q-22 -25 -50.5 -37t-60.5 -12q-30 0 -59.5 11t-54.5 34l-63 56q-27 23 -43 23t-21 -2q-17 -8 -27.5 -23t-11.5 -22v1h-120q0 42 30 86q11 15 29.5 33.5t47.5 32.5q28 13 56 14q10 27 6 50h-80h-31v120h31h7q-24 33 -43 72t-19 90v2q0 48 18 90.5t51 75.5
q33 34 75.5 51.5t90.5 17.5h4q47 0 89.5 -17.5t76.5 -51.5q33 -33 51 -75.5t18 -90.5h-120q0 24 -9 45t-25 36.5t-36.5 24.5t-44.5 9h-4q-24 0 -44.5 -9t-36.5 -24.5t-25 -36.5t-9 -45v-2q0 -30 17 -58t40 -59q18 -23 33 -45h132h20v-120h-20h-86q1 -22 -2 -47
q-3 -21 -10 -37q6 -5 12 -9.5t12 -9.5l64 -57q14 -12 30.5 -13.5t24.5 8.5z" />
    <glyph glyph-name="currency" unicode="&#xa4;" horiz-adv-x="691" 
d="M539 77l-70 69q-56 -35 -124 -35t-124 35l-70 -69l-84 84l69 70q-16 28 -24.5 58.5t-8.5 63.5q0 68 35 124l-69 69l85 85l69 -69q28 16 58.5 24.5t63.5 8.5q32 0 63 -8.5t59 -24.5l69 69l85 -85l-69 -69q35 -56 35 -124q0 -33 -8.5 -63.5t-24.5 -58.5l69 -70zM345 231
q25 0 47.5 9.5t39 26t26 39t9.5 47.5t-9.5 47.5t-26 39t-39 26t-47.5 9.5t-47.5 -9.5t-39 -26t-26 -39t-9.5 -47.5t9.5 -47.5t26 -39t39 -26t47.5 -9.5z" />
    <glyph glyph-name="yen" unicode="&#xa5;" horiz-adv-x="830" 
d="M790 723l-162 -218h88v-120h-177l-37 -49h214v-120h-242v-216h-120v216h-238v120h210l-36 49h-174v120h85l-162 218l96 72l279 -376l280 376l96 -72v0z" />
    <glyph glyph-name="dieresis" unicode="&#xa8;" horiz-adv-x="833" 
d="M367 673q0 -36 -25.5 -61.5t-62.5 -25.5q-36 0 -61.5 25.5t-25.5 61.5q0 37 25.5 62.5t61.5 25.5q37 0 62.5 -25.5t25.5 -62.5zM648 673q0 -36 -25.5 -61.5t-62.5 -25.5q-36 0 -61.5 25.5t-25.5 61.5q0 37 25.5 62.5t61.5 25.5q37 0 62.5 -25.5t25.5 -62.5z" />
    <glyph glyph-name="copyright" unicode="&#xa9;" horiz-adv-x="419" 
d="M213 506q-23 0 -42.5 8.5t-34 23t-23 34t-8.5 41.5t8.5 42t23 34.5t34 23t42.5 8.5q43 0 76 -31l-36 -36q-15 17 -40 17q-24 0 -41 -17t-17 -41q0 -23 17 -40t41 -17q25 0 40 17l36 -36q-33 -31 -76 -31zM210 442q-35 0 -66.5 13.5t-54.5 36.5t-36.5 54.5t-13.5 66.5
q0 36 13.5 67t36.5 54.5t54.5 37t66.5 13.5q36 0 67 -13.5t54.5 -37t37 -54.5t13.5 -67q0 -35 -13.5 -66.5t-37 -54.5t-54.5 -36.5t-67 -13.5zM210 735q-25 0 -47 -9.5t-38.5 -26t-26 -39t-9.5 -47.5t9.5 -47t26 -38.5t38.5 -26t47 -9.5t47.5 9.5t39 26t26 38.5t9.5 47
t-9.5 47.5t-26 39t-39 26t-47.5 9.5z" />
    <glyph glyph-name="registered" unicode="&#xae;" horiz-adv-x="424" 
d="M214 784q35 0 66 -13.5t54.5 -37t37 -54.5t13.5 -66t-13.5 -66t-37 -54t-54.5 -36.5t-66 -13.5t-66 13.5t-54 36.5t-36.5 54t-13.5 66t13.5 66t36.5 54.5t54 37t66 13.5zM214 493q25 0 47 9.5t38.5 26t26 38t9.5 46.5t-9.5 47t-26 38.5t-38.5 26t-47 9.5t-46.5 -9.5
t-38 -26t-26 -38.5t-9.5 -47t9.5 -46.5t26 -38t38 -26t46.5 -9.5zM293 638q0 -34 -25 -56q-4 -4 -10 -8l29 -38l-40 -30l-43 56h-8v-41h-50v188h66q30 0 54 -16q27 -21 27 -55zM196 612h16q7 0 19 4.5t12 21.5q0 14 -11.5 17.5t-19.5 3.5h-16v-47z" />
    <glyph glyph-name="degree" unicode="&#xb0;" horiz-adv-x="204" 
d="M103 655q-27 0 -46.5 19.5t-19.5 46.5q0 28 19.5 47.5t46.5 19.5q28 0 47.5 -19.5t19.5 -47.5q0 -27 -19.5 -46.5t-47.5 -19.5zM103 738q-16 0 -16 -17q0 -16 16 -16q17 0 17 16q0 17 -17 17z" />
    <glyph glyph-name="acute" unicode="&#xb4;" horiz-adv-x="277" 
d="M155 577v0l-110 50l82 181l110 -50l-82 -181v0z" />
    <glyph glyph-name="questiondown" unicode="&#xbf;" horiz-adv-x="624" 
d="M459 585v-225l-82 32q-28 10 -54 10q-30 0 -57 -12t-47.5 -32t-32 -47t-11.5 -58q0 -30 11.5 -57t32 -47.5t47.5 -32t57 -11.5q43 0 79.5 23t55.5 62l108 -52q-34 -69 -97 -110q-68 -43 -146 -43q-54 0 -102.5 20.5t-86.5 58.5t-58.5 86.5t-20.5 102.5t20.5 103t58.5 87
t86.5 58.5t102.5 20.5q11 0 16 -1v64h120zM310 705q0 37 25.5 62.5t61.5 25.5q37 0 62.5 -25.5t25.5 -62.5q0 -36 -25.5 -61.5t-62.5 -25.5q-36 0 -61.5 25.5t-25.5 61.5z" />
    <glyph glyph-name="Agrave" unicode="&#xc0;" horiz-adv-x="819" 
d="M671 -26l-103 216h-325l-102 -216l-108 51l372 788l374 -788zM300 310h211l-106 223zM395 839l-82 181l110 50l82 -181l-110 -50v0v0z" />
    <glyph glyph-name="Aacute" unicode="&#xc1;" horiz-adv-x="819" 
d="M461 817v0l-110 50l82 181l110 -50zM671 -26l-103 216h-325l-102 -216l-108 51l372 788l374 -788zM300 310h211l-106 223z" />
    <glyph glyph-name="Acircumflex" unicode="&#xc2;" horiz-adv-x="819" 
d="M201 867l82 181l110 -50l-82 -181zM503 817l-82 181l110 50l82 -181l-110 -50v0v0zM671 -26l-103 216h-325l-102 -216l-108 51l372 788l374 -788zM300 310h211l-106 223z" />
    <glyph glyph-name="Atilde" unicode="&#xc3;" horiz-adv-x="819" 
d="M671 -26l-103 216h-325l-102 -216l-108 51l372 788l374 -788zM300 310h211l-106 223zM479 824q-31 0 -58 11.5t-48 32.5l-12 12q-9 9 -22 9q-4 0 -9.5 -1.5t-10.5 -6.5q-4 -4 -12 -13.5t-18 -21.5l-92 78q8 8 18.5 20l17.5 20q20 22 47.5 33t57.5 12h1q30 0 58 -11.5
t49 -32.5l12 -12q5 -6 11 -7.5t10 -1.5q3 0 9 1.5t12 7.5q7 7 15 16t14 16l92 -76q-3 -5 -14 -17.5t-22 -23.5q-22 -21 -49 -32.5t-57 -11.5z" />
    <glyph glyph-name="Adieresis" unicode="&#xc4;" horiz-adv-x="819" 
d="M354 903q0 -36 -25.5 -61.5t-62.5 -25.5q-36 0 -61.5 25.5t-25.5 61.5q0 37 25.5 62.5t61.5 25.5q37 0 62.5 -25.5t25.5 -62.5zM635 903q0 -36 -25.5 -61.5t-62.5 -25.5q-36 0 -61.5 25.5t-25.5 61.5q0 37 25.5 62.5t61.5 25.5q37 0 62.5 -25.5t25.5 -62.5zM671 -26
l108 51l-374 788l-372 -788l108 -51l102 216h325zM300 310l105 223l106 -223h-211z" />
    <glyph glyph-name="Aring" unicode="&#xc5;" horiz-adv-x="819" 
d="M409 859q-27 0 -46.5 19.5t-19.5 46.5q0 28 19.5 47.5t46.5 19.5q28 0 47.5 -19.5t19.5 -47.5q0 -27 -19.5 -46.5t-47.5 -19.5zM409 942q-16 0 -16 -17q0 -16 16 -16q17 0 17 16q0 17 -17 17zM671 -26l108 51l-374 788l-372 -788l108 -51l102 216h325zM300 310l105 223
l106 -223h-211z" />
    <glyph glyph-name="Ccedilla" unicode="&#xc7;" horiz-adv-x="800" 
d="M372 -240l-106 56l128 241l106 -56zM459 -15q-81 0 -156 32q-72 30 -128 86t-86 128q-32 75 -32 156t32 157q30 73 86 127q55 55 128 87q37 16 76 23.5t80 7.5q83 0 157 -31q35 -16 67 -37t60 -49l-84 -85q-41 40 -92 61t-108 21q-58 0 -109.5 -22t-89.5 -60.5t-60.5 -90
t-22.5 -109.5t22.5 -109.5t60.5 -89.5t89.5 -60.5t109.5 -22.5q57 0 108 21t92 61l84 -84q-56 -56 -127 -86q-76 -32 -157 -32z" />
    <glyph glyph-name="Egrave" unicode="&#xc8;" horiz-adv-x="637" 
d="M559 653h-343v-190h332v-120h-332v-223h343v-120h-463v773h463v-120v0zM304 803l-82 181l110 50l82 -181l-110 -50v0v0z" />
    <glyph glyph-name="Eacute" unicode="&#xc9;" horiz-adv-x="637" 
d="M559 653h-343v-190h332v-120h-332v-223h343v-120h-463v773h463v-120v0zM332 813v0l-110 50l82 181l110 -50l-82 -181v0z" />
    <glyph glyph-name="Ecircumflex" unicode="&#xca;" horiz-adv-x="637" 
d="M121 867l82 181l110 -50l-82 -181zM423 817l-82 181l110 50l82 -181zM559 653h-343v-190h332v-120h-332v-223h343v-120h-463v773h463v-120z" />
    <glyph glyph-name="Edieresis" unicode="&#xcb;" horiz-adv-x="637" 
d="M266 903q0 -36 -25.5 -61.5t-62.5 -25.5q-36 0 -61.5 25.5t-25.5 61.5q0 37 25.5 62.5t61.5 25.5q37 0 62.5 -25.5t25.5 -62.5zM547 903q0 -36 -25.5 -61.5t-62.5 -25.5q-36 0 -61.5 25.5t-25.5 61.5q0 37 25.5 62.5t61.5 25.5q37 0 62.5 -25.5t25.5 -62.5zM559 653v120
h-463v-773h463v120h-343v223h332v120h-332v190h343z" />
    <glyph glyph-name="Igrave" unicode="&#xcc;" horiz-adv-x="330" 
d="M230 0h-120v773h120v-773v0v0zM151 803l-82 181l110 50l82 -181l-110 -50v0v0z" />
    <glyph glyph-name="Iacute" unicode="&#xcd;" horiz-adv-x="330" 
d="M230 0h-120v773h120v-773v0v0zM179 803v0l-110 50l82 181l110 -50l-82 -181v0z" />
    <glyph glyph-name="Icircumflex" unicode="&#xce;" horiz-adv-x="330" 
d="M-45 867l82 181l110 -50l-82 -181zM257 817l-82 181l110 50l82 -181zM230 0h-120v773h120v-773v0v0z" />
    <glyph glyph-name="Idieresis" unicode="&#xcf;" horiz-adv-x="330" 
d="M117 903q0 -36 -25.5 -61.5t-62.5 -25.5q-36 0 -61.5 25.5t-25.5 61.5q0 37 25.5 62.5t61.5 25.5q37 0 62.5 -25.5t25.5 -62.5zM398 903q0 -36 -25.5 -61.5t-62.5 -25.5q-36 0 -61.5 25.5t-25.5 61.5q0 37 25.5 62.5t61.5 25.5q37 0 62.5 -25.5t25.5 -62.5zM230 0h-120
v773h120v-773z" />
    <glyph glyph-name="Eth" unicode="&#xd0;" horiz-adv-x="866" 
d="M414 0h-269v773h269q82 0 155 -28.5t128 -82.5q54 -54 83 -124t29 -148q0 -80 -27.5 -150t-80.5 -124q-53 -55 -126 -85q-76 -31 -161 -31zM265 120h149q61 0 111.5 20t87 55.5t56.5 85t20 109.5q0 57 -20.5 105t-57.5 83.5t-87 55t-110 19.5h-149v-533zM477 370h-457
v120h457v-120z" />
    <glyph glyph-name="Ntilde" unicode="&#xd1;" horiz-adv-x="910" 
d="M809 -40l-580 565v-525h-120v809l580 -565v529h120v-813v0v0zM525 724q-31 0 -58 11.5t-48 32.5l-12 12q-9 9 -22 9q-4 0 -9.5 -1.5t-10.5 -6.5q-4 -4 -12 -13.5t-18 -21.5l-92 78q8 8 18.5 20l17.5 20q20 22 47.5 33t57.5 12h1q30 0 58 -11.5t49 -32.5l12 -12
q5 -6 11 -7.5t10 -1.5q3 0 9 1.5t12 7.5q7 7 15 16t14 16l92 -76q-3 -5 -14 -17.5t-22 -23.5q-22 -21 -49 -32.5t-57 -11.5z" />
    <glyph glyph-name="Ograve" unicode="&#xd2;" horiz-adv-x="917" 
d="M461 -19q-82 0 -158 32q-72 30 -129 87t-87 129q-32 76 -32 158t32 158q30 72 87 129t129 87q76 32 158 32t158 -32q72 -30 129 -87t87 -129q32 -76 32 -158t-32 -158q-30 -72 -87 -129t-129 -87q-76 -32 -158 -32zM461 673q-59 0 -111 -22.5t-91 -61.5t-61.5 -91
t-22.5 -111t22.5 -111t61.5 -91t91 -61.5t111 -22.5t111 22.5t91 61.5t61.5 91t22.5 111t-22.5 111t-61.5 91t-91 61.5t-111 22.5zM444 803l-82 181l110 50l82 -181l-110 -50v0v0z" />
    <glyph glyph-name="Oacute" unicode="&#xd3;" horiz-adv-x="917" 
d="M461 -19q-82 0 -158 32q-72 30 -129 87t-87 129q-32 76 -32 158t32 158q30 72 87 129t129 87q76 32 158 32t158 -32q72 -30 129 -87t87 -129q32 -76 32 -158t-32 -158q-30 -72 -87 -129t-129 -87q-76 -32 -158 -32zM461 673q-59 0 -111 -22.5t-91 -61.5t-61.5 -91
t-22.5 -111t22.5 -111t61.5 -91t91 -61.5t111 -22.5t111 22.5t91 61.5t61.5 91t22.5 111t-22.5 111t-61.5 91t-91 61.5t-111 22.5zM472 803v0l-110 50l82 181l110 -50l-82 -181v0z" />
    <glyph glyph-name="Ocircumflex" unicode="&#xd4;" horiz-adv-x="917" 
d="M261 867l82 181l110 -50l-82 -181zM563 817l-82 181l110 50l82 -181zM461 -19q-82 0 -158 32q-72 30 -129 87t-87 129q-32 76 -32 158t32 158q30 72 87 129t129 87q76 32 158 32t158 -32q72 -30 129 -87t87 -129q32 -76 32 -158t-32 -158q-30 -72 -87 -129t-129 -87
q-76 -32 -158 -32zM461 673q-59 0 -111 -22.5t-91 -61.5t-61.5 -91t-22.5 -111t22.5 -111t61.5 -91t91 -61.5t111 -22.5t111 22.5t91 61.5t61.5 91t22.5 111t-22.5 111t-61.5 91t-91 61.5t-111 22.5z" />
    <glyph glyph-name="Otilde" unicode="&#xd5;" horiz-adv-x="917" 
d="M461 -19q-82 0 -158 32q-72 30 -129 87t-87 129q-32 76 -32 158t32 158q30 72 87 129t129 87q76 32 158 32t158 -32q72 -30 129 -87t87 -129q32 -76 32 -158t-32 -158q-30 -72 -87 -129t-129 -87q-76 -32 -158 -32zM461 673q-59 0 -111 -22.5t-91 -61.5t-61.5 -91
t-22.5 -111t22.5 -111t61.5 -91t91 -61.5t111 -22.5t111 22.5t91 61.5t61.5 91t22.5 111t-22.5 111t-61.5 91t-91 61.5t-111 22.5zM528 814q-31 0 -58 11.5t-48 32.5l-12 12q-9 9 -22 9q-4 0 -9.5 -1.5t-10.5 -6.5q-4 -4 -12 -13.5t-18 -21.5l-92 78q8 8 18.5 20l17.5 20
q20 22 47.5 33t57.5 12h1q30 0 58 -11.5t49 -32.5l12 -12q5 -6 11 -7.5t10 -1.5q3 0 9 1.5t12 7.5q7 7 15 16t14 16l92 -76q-3 -5 -14 -17.5t-22 -23.5q-22 -21 -49 -32.5t-57 -11.5z" />
    <glyph glyph-name="Odieresis" unicode="&#xd6;" horiz-adv-x="917" 
d="M413 903q0 -36 -25.5 -61.5t-62.5 -25.5q-36 0 -61.5 25.5t-25.5 61.5q0 37 25.5 62.5t61.5 25.5q37 0 62.5 -25.5t25.5 -62.5zM694 903q0 -36 -25.5 -61.5t-62.5 -25.5q-36 0 -61.5 25.5t-25.5 61.5q0 37 25.5 62.5t61.5 25.5q37 0 62.5 -25.5t25.5 -62.5zM461 -19
q-82 0 -158 32q-72 30 -129 87t-87 129q-32 76 -32 158t32 158q30 72 87 129t129 87q76 32 158 32t158 -32q72 -30 129 -87t87 -129q32 -76 32 -158t-32 -158q-30 -72 -87 -129t-129 -87q-76 -32 -158 -32zM461 673q-59 0 -111 -22.5t-91 -61.5t-61.5 -91t-22.5 -111
t22.5 -111t61.5 -91t91 -61.5t111 -22.5t111 22.5t91 61.5t61.5 91t22.5 111t-22.5 111t-61.5 91t-91 61.5t-111 22.5z" />
    <glyph glyph-name="multiply" unicode="&#xd7;" horiz-adv-x="692" 
d="M541 483l-97 -97l97 -96l-85 -85l-97 97l-97 -97l-85 85l97 96l-97 97l85 85l97 -97l97 97l85 -85v0z" />
    <glyph glyph-name="Oslash" unicode="&#xd8;" horiz-adv-x="917" 
d="M461 -19q-82 0 -158 32q-72 30 -129 87t-87 129q-32 76 -32 158t32 158q30 72 87 129t129 87q76 32 158 32t158 -32q72 -30 129 -87t87 -129q32 -76 32 -158t-32 -158q-30 -72 -87 -129t-129 -87q-76 -32 -158 -32zM461 673q-59 0 -111 -22.5t-91 -61.5t-61.5 -91
t-22.5 -111t22.5 -111t61.5 -91t91 -61.5t111 -22.5t111 22.5t91 61.5t61.5 91t22.5 111t-22.5 111t-61.5 91t-91 61.5t-111 22.5zM291 -25l-104 60l438 763l104 -60l-438 -763v0v0z" />
    <glyph glyph-name="Ugrave" unicode="&#xd9;" horiz-adv-x="900" 
d="M450 -15q-68 0 -118.5 14.5t-86.5 37.5t-60 51.5t-38 55.5q-16 30 -25 60.5t-13 57.5t-4.5 49t-0.5 34v428h120v-428q0 -10 0.5 -26.5t3 -36t8.5 -41t17 -41.5q50 -95 197 -95t197 95q11 20 17 41.5t8.5 41t3 36t0.5 26.5v428h120v-428q0 -12 -0.5 -34t-4.5 -49
t-13 -57.5t-25 -60.5q-14 -27 -38 -55.5t-60 -51.5t-86.5 -37.5t-118.5 -14.5zM436 803l-82 181l110 50l82 -181l-110 -50v0v0z" />
    <glyph glyph-name="Uacute" unicode="&#xda;" horiz-adv-x="900" 
d="M450 -15q-68 0 -118.5 14.5t-86.5 37.5t-60 51.5t-38 55.5q-16 30 -25 60.5t-13 57.5t-4.5 49t-0.5 34v428h120v-428q0 -10 0.5 -26.5t3 -36t8.5 -41t17 -41.5q50 -95 197 -95t197 95q11 20 17 41.5t8.5 41t3 36t0.5 26.5v428h120v-428q0 -12 -0.5 -34t-4.5 -49
t-13 -57.5t-25 -60.5q-14 -27 -38 -55.5t-60 -51.5t-86.5 -37.5t-118.5 -14.5zM464 803v0l-110 50l82 181l110 -50l-82 -181v0z" />
    <glyph glyph-name="Ucircumflex" unicode="&#xdb;" horiz-adv-x="900" 
d="M243 867l82 181l110 -50l-82 -181zM545 817l-82 181l110 50l82 -181zM450 -15q-68 0 -118.5 14.5t-86.5 37.5t-60 51.5t-38 55.5q-16 30 -25 60.5t-13 57.5t-4.5 49t-0.5 34v428h120v-428q0 -10 0.5 -26.5t3 -36t8.5 -41t17 -41.5q50 -95 197 -95t197 95q11 20 17 41.5
t8.5 41t3 36t0.5 26.5v428h120v-428q0 -12 -0.5 -34t-4.5 -49t-13 -57.5t-25 -60.5q-14 -27 -38 -55.5t-60 -51.5t-86.5 -37.5t-118.5 -14.5z" />
    <glyph glyph-name="Udieresis" unicode="&#xdc;" horiz-adv-x="900" 
d="M394 903q0 -36 -25.5 -61.5t-62.5 -25.5q-36 0 -61.5 25.5t-25.5 61.5q0 37 25.5 62.5t61.5 25.5q37 0 62.5 -25.5t25.5 -62.5zM675 903q0 -36 -25.5 -61.5t-62.5 -25.5q-36 0 -61.5 25.5t-25.5 61.5q0 37 25.5 62.5t61.5 25.5q37 0 62.5 -25.5t25.5 -62.5zM450 -15
q-68 0 -118.5 14.5t-86.5 37.5t-60 51.5t-38 55.5q-16 30 -25 60.5t-13 57.5t-4.5 49t-0.5 34v428h120v-428q0 -10 0.5 -26.5t3 -36t8.5 -41t17 -41.5q50 -95 197 -95t197 95q11 20 17 41.5t8.5 41t3 36t0.5 26.5v428h120v-428q0 -12 -0.5 -34t-4.5 -49t-13 -57.5t-25 -60.5
q-14 -27 -38 -55.5t-60 -51.5t-86.5 -37.5t-118.5 -14.5z" />
    <glyph glyph-name="Yacute" unicode="&#xdd;" horiz-adv-x="860" 
d="M816 732l-326 -434v-298h-120v298l-325 434l96 72l289 -386l290 386l96 -72v0zM444 803v0l-110 50l82 181l110 -50l-82 -181v0z" />
    <glyph glyph-name="germandbls" unicode="&#xdf;" horiz-adv-x="696" 
d="M525 464q42 -42 63.5 -94.5t21.5 -111.5t-21.5 -111.5t-63.5 -94.5t-95 -63.5t-111 -21.5h-17v120h17q35 0 66 13.5t54.5 36.5t37 54.5t13.5 66.5q0 36 -13.5 67t-37 54t-54.5 36.5t-66 13.5h-43v120h16h16q18 0 33.5 7t27.5 18.5t18.5 27t6.5 33.5q0 36 -25 61t-61 25
h-18q-37 0 -56 -24q-27 -32 -27 -108v-586h-120v586q0 118 55 185q56 65 145 67h2h19q43 0 80.5 -16t65.5 -44t44 -65.5t16 -80.5q0 -36 -12 -68.5t-33 -59.5q15 -9 29 -19.5t27 -23.5z" />
    <glyph glyph-name="agrave" unicode="&#xe0;" horiz-adv-x="674" 
d="M614 480v-480h-120v65q-2 -2 -4.5 -5t-4.5 -5q-38 -37 -85 -56.5t-100 -19.5q-52 0 -99.5 19.5t-84.5 56.5t-56.5 84.5t-19.5 99.5q0 53 19.5 100t56.5 85q37 37 84.5 56.5t99.5 19.5q53 0 100 -19.5t85 -56.5q3 -4 9 -10v66h120zM300 99q29 0 55 11t45 30t30 44.5
t11 54.5t-11 55t-30 45t-45 30t-55 11t-54.5 -11t-44.5 -30t-30 -45t-11 -55t11 -54.5t30 -44.5t44.5 -30t54.5 -11zM323 577l-82 181l110 50l82 -181l-110 -50v0v0z" />
    <glyph glyph-name="aacute" unicode="&#xe1;" horiz-adv-x="674" 
d="M614 480v-480h-120v65q-2 -2 -4.5 -5t-4.5 -5q-38 -37 -85 -56.5t-100 -19.5q-52 0 -99.5 19.5t-84.5 56.5t-56.5 84.5t-19.5 99.5q0 53 19.5 100t56.5 85q37 37 84.5 56.5t99.5 19.5q53 0 100 -19.5t85 -56.5q3 -4 9 -10v66h120zM300 99q29 0 55 11t45 30t30 44.5
t11 54.5t-11 55t-30 45t-45 30t-55 11t-54.5 -11t-44.5 -30t-30 -45t-11 -55t11 -54.5t30 -44.5t44.5 -30t54.5 -11zM351 577v0l-110 50l82 181l110 -50l-82 -181v0z" />
    <glyph glyph-name="acircumflex" unicode="&#xe2;" horiz-adv-x="674" 
d="M103 637l82 181l110 -50l-82 -181zM405 587l-82 181l110 50l82 -181zM614 480v-480h-120v65q-2 -2 -4.5 -5t-4.5 -5q-38 -37 -85 -56.5t-100 -19.5q-52 0 -99.5 19.5t-84.5 56.5t-56.5 84.5t-19.5 99.5q0 53 19.5 100t56.5 85q37 37 84.5 56.5t99.5 19.5q53 0 100 -19.5
t85 -56.5q3 -4 9 -10v66h120zM300 99q29 0 55 11t45 30t30 44.5t11 54.5t-11 55t-30 45t-45 30t-55 11t-54.5 -11t-44.5 -30t-30 -45t-11 -55t11 -54.5t30 -44.5t44.5 -30t54.5 -11z" />
    <glyph glyph-name="atilde" unicode="&#xe3;" horiz-adv-x="674" 
d="M614 480v-480h-120v65q-2 -2 -4.5 -5t-4.5 -5q-38 -37 -85 -56.5t-100 -19.5q-52 0 -99.5 19.5t-84.5 56.5t-56.5 84.5t-19.5 99.5q0 53 19.5 100t56.5 85q37 37 84.5 56.5t99.5 19.5q53 0 100 -19.5t85 -56.5q3 -4 9 -10v66h120zM300 99q29 0 55 11t45 30t30 44.5
t11 54.5t-11 55t-30 45t-45 30t-55 11t-54.5 -11t-44.5 -30t-30 -45t-11 -55t11 -54.5t30 -44.5t44.5 -30t54.5 -11zM407 578q-31 0 -58 11.5t-48 32.5l-12 12q-9 9 -22 9q-4 0 -9.5 -1.5t-10.5 -6.5q-4 -4 -12 -13.5t-18 -21.5l-92 78q8 8 18.5 20l17.5 20q20 22 47.5 33
t57.5 12h1q30 0 58 -11.5t49 -32.5l12 -12q5 -6 11 -7.5t10 -1.5q3 0 9 1.5t12 7.5q7 7 15 16t14 16l92 -76q-3 -5 -14 -17.5t-22 -23.5q-22 -21 -49 -32.5t-57 -11.5z" />
    <glyph glyph-name="adieresis" unicode="&#xe4;" horiz-adv-x="674" 
d="M273 673q0 -36 -25.5 -61.5t-62.5 -25.5q-36 0 -61.5 25.5t-25.5 61.5q0 37 25.5 62.5t61.5 25.5q37 0 62.5 -25.5t25.5 -62.5zM554 673q0 -36 -25.5 -61.5t-62.5 -25.5q-36 0 -61.5 25.5t-25.5 61.5q0 37 25.5 62.5t61.5 25.5q37 0 62.5 -25.5t25.5 -62.5zM494 480v-66
q-6 6 -9 10q-38 37 -85 56.5t-100 19.5q-52 0 -99.5 -19.5t-84.5 -56.5q-37 -38 -56.5 -85t-19.5 -100q0 -52 19.5 -99.5t56.5 -84.5t84.5 -56.5t99.5 -19.5q53 0 100 19.5t85 56.5q2 2 4.5 5t4.5 5v-65h120v480h-120zM300 99q-29 0 -54.5 11t-44.5 30t-30 44.5t-11 54.5
t11 55t30 45t44.5 30t54.5 11t55 -11t45 -30t30 -45t11 -55t-11 -54.5t-30 -44.5t-45 -30t-55 -11z" />
    <glyph glyph-name="aring" unicode="&#xe5;" horiz-adv-x="674" 
d="M309 624q-27 0 -46.5 19.5t-19.5 46.5q0 28 19.5 47.5t46.5 19.5q28 0 47.5 -19.5t19.5 -47.5q0 -27 -19.5 -46.5t-47.5 -19.5zM309 707q-16 0 -16 -17q0 -16 16 -16q17 0 17 16q0 17 -17 17zM494 480v-66q-6 6 -9 10q-38 37 -85 56.5t-100 19.5q-52 0 -99.5 -19.5
t-84.5 -56.5q-37 -38 -56.5 -85t-19.5 -100q0 -52 19.5 -99.5t56.5 -84.5t84.5 -56.5t99.5 -19.5q53 0 100 19.5t85 56.5q2 2 4.5 5t4.5 5v-65h120v480h-120zM300 99q-29 0 -54.5 11t-44.5 30t-30 44.5t-11 54.5t11 55t30 45t44.5 30t54.5 11t55 -11t45 -30t30 -45t11 -55
t-11 -54.5t-30 -44.5t-45 -30t-55 -11z" />
    <glyph glyph-name="ccedilla" unicode="&#xe7;" horiz-adv-x="548" 
d="M236 -197l-106 56l128 241l106 -56zM312 -18q-52 0 -99 19t-84 56q-36 37 -55.5 84t-19.5 99t19.5 99t55.5 84q37 37 84 56t99 19t99 -19t84 -56l-85 -85q-40 40 -98 40q-29 0 -54 -11t-43.5 -29.5t-29.5 -44t-11 -53.5q0 -29 11 -54t29.5 -43.5t43.5 -29.5t54 -11
q58 0 98 40l85 -85q-37 -37 -84 -56t-99 -19z" />
    <glyph glyph-name="egrave" unicode="&#xe8;" 
d="M315 -23q-53 0 -100.5 19.5t-84.5 57.5q-38 37 -57.5 84.5t-19.5 100.5q0 54 19.5 101t57.5 85q37 38 84.5 57.5t100.5 19.5q54 0 102 -20.5t84 -56.5t56.5 -84t20.5 -102v-55h-405q17 -43 55.5 -70t86.5 -27q42 0 77 20.5t56 55.5l95 -55q-35 -59 -94 -95
q-62 -36 -134 -36zM173 294h285q-17 43 -55.5 70.5t-87.5 27.5q-48 0 -86.5 -27.5t-55.5 -70.5zM301 577l-82 181l110 50l82 -181l-110 -50v0v0z" />
    <glyph glyph-name="eacute" unicode="&#xe9;" 
d="M315 -23q-53 0 -100.5 19.5t-84.5 57.5q-38 37 -57.5 84.5t-19.5 100.5q0 54 19.5 101t57.5 85q37 38 84.5 57.5t100.5 19.5q54 0 102 -20.5t84 -56.5t56.5 -84t20.5 -102v-55h-405q17 -43 55.5 -70t86.5 -27q42 0 77 20.5t56 55.5l95 -55q-35 -59 -94 -95
q-62 -36 -134 -36zM173 294h285q-17 43 -55.5 70.5t-87.5 27.5q-48 0 -86.5 -27.5t-55.5 -70.5zM329 577v0l-110 50l82 181l110 -50l-82 -181v0z" />
    <glyph glyph-name="ecircumflex" unicode="&#xea;" 
d="M103 637l82 181l110 -50l-82 -181zM405 587l-82 181l110 50l82 -181zM315 -23q-53 0 -100.5 19.5t-84.5 57.5q-38 37 -57.5 84.5t-19.5 100.5q0 54 19.5 101t57.5 85q37 38 84.5 57.5t100.5 19.5q54 0 102 -20.5t84 -56.5t56.5 -84t20.5 -102v-55h-405q17 -43 55.5 -70
t86.5 -27q42 0 77 20.5t56 55.5l95 -55q-35 -59 -94 -95q-62 -36 -134 -36zM173 294h285q-17 43 -55.5 70.5t-87.5 27.5q-48 0 -86.5 -27.5t-55.5 -70.5z" />
    <glyph glyph-name="edieresis" unicode="&#xeb;" 
d="M266 673q0 -36 -25.5 -61.5t-62.5 -25.5q-36 0 -61.5 25.5t-25.5 61.5q0 37 25.5 62.5t61.5 25.5q37 0 62.5 -25.5t25.5 -62.5zM547 673q0 -36 -25.5 -61.5t-62.5 -25.5q-36 0 -61.5 25.5t-25.5 61.5q0 37 25.5 62.5t61.5 25.5q37 0 62.5 -25.5t25.5 -62.5zM315 -23
q-53 0 -100.5 19.5t-84.5 57.5q-38 37 -57.5 84.5t-19.5 100.5q0 54 19.5 101t57.5 85q37 38 84.5 57.5t100.5 19.5q54 0 102 -20.5t84 -56.5t56.5 -84t20.5 -102v-55h-405q17 -43 55.5 -70t86.5 -27q42 0 77 20.5t56 55.5l95 -55q-35 -59 -94 -95q-62 -36 -134 -36z
M173 294h285q-17 43 -55.5 70.5t-87.5 27.5q-48 0 -86.5 -27.5t-55.5 -70.5z" />
    <glyph glyph-name="igrave" unicode="&#xec;" horiz-adv-x="281" 
d="M200 0h-120v480h120v-480v0v0zM126 577l-82 181l110 50l82 -181l-110 -50v0v0z" />
    <glyph glyph-name="iacute" unicode="&#xed;" horiz-adv-x="281" 
d="M200 0h-120v480h120v-480zM155 577v0l-110 50l82 181l110 -50z" />
    <glyph glyph-name="icircumflex" unicode="&#xee;" horiz-adv-x="330" 
d="M230 0h-120v480h120v-480zM-35 637l82 181l110 -50l-82 -181zM267 587l-82 181l110 50l82 -181z" />
    <glyph glyph-name="idieresis" unicode="&#xef;" horiz-adv-x="358" 
d="M230 0h-120v480h120v-480zM123 673q0 -36 -25.5 -61.5t-62.5 -25.5q-36 0 -61.5 25.5t-25.5 61.5q0 37 25.5 62.5t61.5 25.5q37 0 62.5 -25.5t25.5 -62.5zM404 673q0 -36 -25.5 -61.5t-62.5 -25.5q-36 0 -61.5 25.5t-25.5 61.5q0 37 25.5 62.5t61.5 25.5q37 0 62.5 -25.5
t25.5 -62.5z" />
    <glyph glyph-name="ntilde" unicode="&#xf1;" horiz-adv-x="664" 
d="M525 425q37 -38 56.5 -85t19.5 -99v-241h-120v241q0 29 -11 54.5t-30 44.5t-44.5 30t-54.5 11h-1q-29 0 -54.5 -11t-44.5 -30t-30 -44.5t-11 -54.5v-241h-10h-110v241v249h110v-37q68 48 150 48h1q52 0 99 -19.5t85 -56.5zM402 588q-31 0 -58 11.5t-48 32.5l-12 12
q-9 9 -22 9q-4 0 -9.5 -1.5t-10.5 -6.5q-4 -4 -12 -13.5t-18 -21.5l-92 78q8 8 18.5 20l17.5 20q20 22 47.5 33t57.5 12h1q30 0 58 -11.5t49 -32.5l12 -12q5 -6 11 -7.5t10 -1.5q3 0 9 1.5t12 7.5q7 7 15 16t14 16l92 -76q-3 -5 -14 -17.5t-22 -23.5q-22 -21 -49 -32.5
t-57 -11.5z" />
    <glyph glyph-name="ograve" unicode="&#xf2;" 
d="M315 -22q-53 0 -100.5 19.5t-84.5 57.5q-38 37 -57.5 84.5t-19.5 100.5t19.5 100.5t57.5 84.5q37 38 84.5 57.5t100.5 19.5t100.5 -19.5t84.5 -57.5q38 -37 57.5 -84.5t19.5 -100.5t-19.5 -100.5t-57.5 -84.5q-37 -38 -84.5 -57.5t-100.5 -19.5zM315 382q-29 0 -55 -11
t-45.5 -30.5t-30.5 -45.5t-11 -55t11 -55t30.5 -45.5t45.5 -30.5t55 -11t55 11t45.5 30.5t30.5 45.5t11 55t-11 55t-30.5 45.5t-45.5 30.5t-55 11zM301 577l-82 181l110 50l82 -181l-110 -50v0v0z" />
    <glyph glyph-name="oacute" unicode="&#xf3;" 
d="M315 -22q-53 0 -100.5 19.5t-84.5 57.5q-38 37 -57.5 84.5t-19.5 100.5t19.5 100.5t57.5 84.5q37 38 84.5 57.5t100.5 19.5t100.5 -19.5t84.5 -57.5q38 -37 57.5 -84.5t19.5 -100.5t-19.5 -100.5t-57.5 -84.5q-37 -38 -84.5 -57.5t-100.5 -19.5zM315 382q-29 0 -55 -11
t-45.5 -30.5t-30.5 -45.5t-11 -55t11 -55t30.5 -45.5t45.5 -30.5t55 -11t55 11t45.5 30.5t30.5 45.5t11 55t-11 55t-30.5 45.5t-45.5 30.5t-55 11zM329 577v0l-110 50l82 181l110 -50l-82 -181v0z" />
    <glyph glyph-name="ocircumflex" unicode="&#xf4;" 
d="M103 637l82 181l110 -50l-82 -181zM405 587l-82 181l110 50l82 -181zM315 -22q-53 0 -100.5 19.5t-84.5 57.5q-38 37 -57.5 84.5t-19.5 100.5t19.5 100.5t57.5 84.5q37 38 84.5 57.5t100.5 19.5t100.5 -19.5t84.5 -57.5q38 -37 57.5 -84.5t19.5 -100.5t-19.5 -100.5
t-57.5 -84.5q-37 -38 -84.5 -57.5t-100.5 -19.5zM315 382q-29 0 -55 -11t-45.5 -30.5t-30.5 -45.5t-11 -55t11 -55t30.5 -45.5t45.5 -30.5t55 -11t55 11t45.5 30.5t30.5 45.5t11 55t-11 55t-30.5 45.5t-45.5 30.5t-55 11z" />
    <glyph glyph-name="otilde" unicode="&#xf5;" 
d="M315 -22q-53 0 -100.5 19.5t-84.5 57.5q-38 37 -57.5 84.5t-19.5 100.5t19.5 100.5t57.5 84.5q37 38 84.5 57.5t100.5 19.5t100.5 -19.5t84.5 -57.5q38 -37 57.5 -84.5t19.5 -100.5t-19.5 -100.5t-57.5 -84.5q-37 -38 -84.5 -57.5t-100.5 -19.5zM315 382q-29 0 -55 -11
t-45.5 -30.5t-30.5 -45.5t-11 -55t11 -55t30.5 -45.5t45.5 -30.5t55 -11t55 11t45.5 30.5t30.5 45.5t11 55t-11 55t-30.5 45.5t-45.5 30.5t-55 11zM385 584q-31 0 -58 11.5t-48 32.5l-12 12q-9 9 -22 9q-4 0 -9.5 -1.5t-10.5 -6.5q-4 -4 -12 -13.5t-18 -21.5l-92 78
q8 8 18.5 20l17.5 20q20 22 47.5 33t57.5 12h1q30 0 58 -11.5t49 -32.5l12 -12q5 -6 11 -7.5t10 -1.5q3 0 9 1.5t12 7.5q7 7 15 16t14 16l92 -76q-3 -5 -14 -17.5t-22 -23.5q-22 -21 -49 -32.5t-57 -11.5z" />
    <glyph glyph-name="odieresis" unicode="&#xf6;" 
d="M259 673q0 -36 -25.5 -61.5t-62.5 -25.5q-36 0 -61.5 25.5t-25.5 61.5q0 37 25.5 62.5t61.5 25.5q37 0 62.5 -25.5t25.5 -62.5zM540 673q0 -36 -25.5 -61.5t-62.5 -25.5q-36 0 -61.5 25.5t-25.5 61.5q0 37 25.5 62.5t61.5 25.5q37 0 62.5 -25.5t25.5 -62.5zM315 -22
q-53 0 -100.5 19.5t-84.5 57.5q-38 37 -57.5 84.5t-19.5 100.5t19.5 100.5t57.5 84.5q37 38 84.5 57.5t100.5 19.5t100.5 -19.5t84.5 -57.5q38 -37 57.5 -84.5t19.5 -100.5t-19.5 -100.5t-57.5 -84.5q-37 -38 -84.5 -57.5t-100.5 -19.5zM315 382q-29 0 -55 -11t-45.5 -30.5
t-30.5 -45.5t-11 -55t11 -55t30.5 -45.5t45.5 -30.5t55 -11t55 11t45.5 30.5t30.5 45.5t11 55t-11 55t-30.5 45.5t-45.5 30.5t-55 11z" />
    <glyph glyph-name="divide" unicode="&#xf7;" horiz-adv-x="649" 
d="M574 360h-496v120h496v-120zM414 599q0 -36 -25.5 -61.5t-62.5 -25.5q-36 0 -61.5 25.5t-25.5 61.5q0 37 25.5 62.5t61.5 25.5q37 0 62.5 -25.5t25.5 -62.5zM414 239q0 -36 -25.5 -61.5t-62.5 -25.5q-36 0 -61.5 25.5t-25.5 61.5q0 37 25.5 62.5t61.5 25.5
q37 0 62.5 -25.5t25.5 -62.5z" />
    <glyph glyph-name="oslash" unicode="&#xf8;" 
d="M134 -35l-88 82l440 470l88 -82zM315 -22q-53 0 -100.5 19.5t-84.5 57.5q-38 37 -57.5 84.5t-19.5 100.5t19.5 100.5t57.5 84.5q37 38 84.5 57.5t100.5 19.5t100.5 -19.5t84.5 -57.5q38 -37 57.5 -84.5t19.5 -100.5t-19.5 -100.5t-57.5 -84.5q-37 -38 -84.5 -57.5
t-100.5 -19.5zM315 382q-29 0 -55 -11t-45.5 -30.5t-30.5 -45.5t-11 -55t11 -55t30.5 -45.5t45.5 -30.5t55 -11t55 11t45.5 30.5t30.5 45.5t11 55t-11 55t-30.5 45.5t-45.5 30.5t-55 11z" />
    <glyph glyph-name="ugrave" unicode="&#xf9;" horiz-adv-x="674" 
d="M337 -29h-1q-113 0 -177 55q-79 67 -79 201v253h120v-253q0 -79 36 -110q32 -26 100 -26h1q46 0 73 13t41 33t18.5 44t4.5 46v253h120v-253q0 -62 -20 -113t-59 -84q-33 -29 -78.5 -44t-99.5 -15zM323 577l-82 181l110 50l82 -181l-110 -50v0v0z" />
    <glyph glyph-name="uacute" unicode="&#xfa;" horiz-adv-x="674" 
d="M337 -29h-1q-113 0 -177 55q-79 67 -79 201v253h120v-253q0 -79 36 -110q32 -26 100 -26h1q46 0 73 13t41 33t18.5 44t4.5 46v253h120v-253q0 -62 -20 -113t-59 -84q-33 -29 -78.5 -44t-99.5 -15zM351 577v0l-110 50l82 181l110 -50l-82 -181v0z" />
    <glyph glyph-name="ucircumflex" unicode="&#xfb;" horiz-adv-x="674" 
d="M133 637l82 181l110 -50l-82 -181zM435 587l-82 181l110 50l82 -181zM337 -29h-1q-113 0 -177 55q-79 67 -79 201v253h120v-253q0 -79 36 -110q32 -26 100 -26h1q46 0 73 13t41 33t18.5 44t4.5 46v253h120v-253q0 -62 -20 -113t-59 -84q-33 -29 -78.5 -44t-99.5 -15z" />
    <glyph glyph-name="udieresis" unicode="&#xfc;" horiz-adv-x="674" 
d="M288 673q0 -36 -25.5 -61.5t-62.5 -25.5q-36 0 -61.5 25.5t-25.5 61.5q0 37 25.5 62.5t61.5 25.5q37 0 62.5 -25.5t25.5 -62.5zM569 673q0 -36 -25.5 -61.5t-62.5 -25.5q-36 0 -61.5 25.5t-25.5 61.5q0 37 25.5 62.5t61.5 25.5q37 0 62.5 -25.5t25.5 -62.5zM337 -29h-1
q-113 0 -177 55q-79 67 -79 201v253h120v-253q0 -79 36 -110q32 -26 100 -26h1q46 0 73 13t41 33t18.5 44t4.5 46v253h120v-253q0 -62 -20 -113t-59 -84q-33 -29 -78.5 -44t-99.5 -15z" />
    <glyph glyph-name="yacute" unicode="&#xfd;" horiz-adv-x="664" 
d="M534 496l105 -57l-376 -684l-105 58l105 191l-225 436l107 55l188 -364l201 365v0zM346 577v0l-110 50l82 181l110 -50l-82 -181v0z" />
    <glyph glyph-name="ydieresis" unicode="&#xff;" horiz-adv-x="664" 
d="M279 673q0 -36 -25.5 -61.5t-62.5 -25.5q-36 0 -61.5 25.5t-25.5 61.5q0 37 25.5 62.5t61.5 25.5q37 0 62.5 -25.5t25.5 -62.5zM560 673q0 -36 -25.5 -61.5t-62.5 -25.5q-36 0 -61.5 25.5t-25.5 61.5q0 37 25.5 62.5t61.5 25.5q37 0 62.5 -25.5t25.5 -62.5zM534 496
l-201 -365l-188 364l-107 -55l225 -436l-105 -191l105 -58l376 684z" />
    <glyph glyph-name="Scaron" unicode="&#x160;" horiz-adv-x="733" 
 />
    <glyph glyph-name="Ydieresis" unicode="&#x178;" horiz-adv-x="860" 
d="M386 914q0 -36 -25.5 -61.5t-62.5 -25.5q-36 0 -61.5 25.5t-25.5 61.5q0 37 25.5 62.5t61.5 25.5q37 0 62.5 -25.5t25.5 -62.5zM667 914q0 -36 -25.5 -61.5t-62.5 -25.5q-36 0 -61.5 25.5t-25.5 61.5q0 37 25.5 62.5t61.5 25.5q37 0 62.5 -25.5t25.5 -62.5zM816 732
l-96 72l-290 -386l-289 386l-96 -72l325 -434v-298h120v298z" />
    <glyph glyph-name="tilde" unicode="&#x2dc;" horiz-adv-x="490" 
d="M314 438q-31 0 -58 11.5t-48 32.5l-12 12q-9 9 -22 9q-4 0 -9.5 -1.5t-10.5 -6.5q-4 -4 -12 -13.5t-18 -21.5l-92 78q8 8 18.5 20l17.5 20q20 22 47.5 33t57.5 12h1q30 0 58 -11.5t49 -32.5l12 -12q5 -6 11 -7.5t10 -1.5q3 0 9 1.5t12 7.5q7 7 15 16t14 16l92 -76
q-3 -5 -14 -17.5t-22 -23.5q-22 -21 -49 -32.5t-57 -11.5z" />
    <glyph glyph-name="endash" unicode="&#x2013;" horiz-adv-x="748" 
d="M657 260h-567v120h567v-120z" />
    <glyph glyph-name="emdash" unicode="&#x2014;" horiz-adv-x="851" 
d="M759 260h-669v120h669v-120z" />
    <glyph glyph-name="quoteleft" unicode="&#x2018;" horiz-adv-x="301" 
d="M134 460l-106 56l128 241l106 -56z" />
    <glyph glyph-name="quoteright" unicode="&#x2019;" horiz-adv-x="292" 
d="M134 500l-106 56l128 241l106 -56z" />
    <glyph glyph-name="quotesinglbase" unicode="&#x201a;" horiz-adv-x="350" 
d="M156 -177l-106 56l128 241l106 -56z" />
    <glyph glyph-name="quotedblleft" unicode="&#x201c;" horiz-adv-x="489" 
d="M134 460l-106 56l128 241l106 -56zM324 460l-106 56l128 241l106 -56z" />
    <glyph glyph-name="quotedblright" unicode="&#x201d;" horiz-adv-x="491" 
d="M134 500l-106 56l128 241l106 -56zM324 500l-106 56l128 241l106 -56z" />
    <glyph glyph-name="quotedblbase" unicode="&#x201e;" horiz-adv-x="503" 
d="M126 -177l-106 56l128 241l106 -56zM336 -177l-106 56l128 241l106 -56z" />
    <glyph glyph-name="dagger" unicode="&#x2020;" horiz-adv-x="500" 
d="M458 743v-120h-148v-765h-120v765h-148v120h148v93h120v-93h148v0z" />
    <glyph glyph-name="daggerdbl" unicode="&#x2021;" horiz-adv-x="500" 
d="M458 623h-148v-543h148v-120h-148v-102h-120v102h-148v120h148v543h-148v120h148v93h120v-93h148v-120v0z" />
    <glyph glyph-name="bullet" unicode="&#x2022;" horiz-adv-x="355" 
d="M275 393q0 -36 -25.5 -61.5t-62.5 -25.5q-36 0 -61.5 25.5t-25.5 61.5q0 37 25.5 62.5t61.5 25.5q37 0 62.5 -25.5t25.5 -62.5z" />
    <glyph glyph-name="ellipsis" unicode="&#x2026;" horiz-adv-x="885" 
d="M255 73q0 -36 -25.5 -61.5t-62.5 -25.5q-36 0 -61.5 25.5t-25.5 61.5q0 37 25.5 62.5t61.5 25.5q37 0 62.5 -25.5t25.5 -62.5zM534 73q0 -36 -25.5 -61.5t-62.5 -25.5q-36 0 -61.5 25.5t-25.5 61.5q0 37 25.5 62.5t61.5 25.5q37 0 62.5 -25.5t25.5 -62.5zM815 73
q0 -36 -25.5 -61.5t-62.5 -25.5q-36 0 -61.5 25.5t-25.5 61.5q0 37 25.5 62.5t61.5 25.5q37 0 62.5 -25.5t25.5 -62.5z" />
    <glyph glyph-name="fraction" unicode="&#x2044;" horiz-adv-x="500" 
d="M83 -30l-104 60l444 773l104 -60l-444 -773v0v0z" />
    <glyph glyph-name="Euro" unicode="&#x20ac;" horiz-adv-x="867" 
d="M824 103q-56 -56 -128 -86q-75 -32 -156 -32t-156 32q-72 30 -128 86t-86 128q-5 11 -8 20h-128v120h105q-1 4 -1 8v8q0 10 1 15h-105v120h128q2 5 4 10.5t4 11.5q30 71 86 127t128 86q75 32 156 32t156 -32q72 -30 128 -86l-85 -84q-40 40 -91 61t-108 21
q-81 0 -146 -40.5t-101 -106.5h368v-120h-402q-1 -5 -1 -15q0 -4 0.5 -8t0.5 -8h402v-120h-367q36 -66 101 -106t145 -40q57 0 108 21.5t91 61.5z" />
    <glyph glyph-name="trademark" unicode="&#x2122;" horiz-adv-x="658" 
d="M258 722h-87v-244h-50v244h-86v50h223v-50zM548 786l74 -300l-48 -12l-43 173l-103 -192l-102 192l-43 -172l-48 12l73 298l120 -224z" />
    </font>
</defs>
</svg>
