<svg xmlns="http://www.w3.org/2000/svg" xmlns:xlink="http://www.w3.org/1999/xlink" viewBox="0 0 145.3 153.87"><defs><linearGradient id="Dégradé_sans_nom_3" x1="2.3" y1="29.88" x2="142.96" y2="29.88" gradientUnits="userSpaceOnUse"><stop offset="0" stop-color="#fff" stop-opacity="0"/><stop offset="0.55" stop-color="#a3a5b0" stop-opacity="0.53"/><stop offset="1" stop-color="#51566a"/></linearGradient><linearGradient id="Dégradé_sans_nom_3-2" x1="1221.84" y1="594.44" x2="1362.5" y2="594.44" gradientTransform="translate(1362.5 722.55) rotate(180)" xlink:href="#Dégradé_sans_nom_3"/><linearGradient id="Dégradé_sans_nom_4" x1="4.59" y1="25.76" x2="145.25" y2="25.76" gradientUnits="userSpaceOnUse"><stop offset="0" stop-color="#fff"/><stop offset="0.58" stop-color="#064390"/></linearGradient><linearGradient id="Dégradé_sans_nom_13" x1="1219.55" y1="598.56" x2="1360.21" y2="598.56" gradientTransform="translate(1362.5 722.55) rotate(180)" gradientUnits="userSpaceOnUse"><stop offset="0" stop-color="#fff"/><stop offset="0.7" stop-color="#e40d20"/></linearGradient><linearGradient id="Dégradé_sans_nom_10" x1="-2.45" y1="75.13" x2="138.86" y2="75.87" gradientUnits="userSpaceOnUse"><stop offset="0" stop-color="#51566a"/><stop offset="0.21" stop-color="#51566a"/><stop offset="0.25" stop-color="#51566a"/></linearGradient><linearGradient id="Dégradé_sans_nom_10-2" x1="-2.43" y1="75.85" x2="138.75" y2="76.59" xlink:href="#Dégradé_sans_nom_10"/><linearGradient id="Dégradé_sans_nom_10-3" x1="-2.45" y1="75.74" x2="138.86" y2="76.48" xlink:href="#Dégradé_sans_nom_10"/><linearGradient id="Dégradé_sans_nom_10-4" x1="71.8" y1="75.74" x2="213.12" y2="76.48" xlink:href="#Dégradé_sans_nom_10"/><linearGradient id="Dégradé_sans_nom_10-5" x1="-2.45" y1="75.55" x2="138.86" y2="76.29" xlink:href="#Dégradé_sans_nom_10"/></defs><title>Fichier 2</title><g id="Calque_2" data-name="Calque 2"><g id="Calque_1-2" data-name="Calque 1"><path d="M85.14,5a74.33,74.33,0,0,0-13.53-.88A88.82,88.82,0,0,0,44.1,9a75.28,75.28,0,0,0-41.81,41C13.43,33.56,34.15,22.54,57.91,22.54c24.62,0,46,11.84,56.8,29.22.72.89,1.41,1.8,2.06,2.72.73.74,1.11,1.16,1.11,1.16H143A75.13,75.13,0,0,0,85.14,5Z" style="fill:url(#Dégradé_sans_nom_3)"/><path d="M57.82,153a74.33,74.33,0,0,0,13.53.88A88.82,88.82,0,0,0,98.85,149a75.28,75.28,0,0,0,41.81-41c-11.13,16.38-31.86,27.41-55.61,27.41-24.62,0-46-11.84-56.8-29.22-.72-.89-1.41-1.8-2.06-2.72-.73-.74-1.11-1.16-1.11-1.16H0A75.13,75.13,0,0,0,57.82,153Z" style="fill:url(#Dégradé_sans_nom_3-2)"/><path d="M87.44.9A74.33,74.33,0,0,0,73.91,0,88.82,88.82,0,0,0,46.4,4.87a75.28,75.28,0,0,0-41.81,41C15.72,29.44,36.45,18.42,60.2,18.42c24.62,0,46,11.84,56.8,29.22.72.89,1.41,1.8,2.06,2.72.73.74,1.11,1.16,1.11,1.16h25.07A75.13,75.13,0,0,0,87.44.9Z" style="fill:url(#Dégradé_sans_nom_4)"/><path d="M60.11,148.85a74.33,74.33,0,0,0,13.53.88,88.82,88.82,0,0,0,27.51-4.84,75.28,75.28,0,0,0,41.81-41c-11.13,16.38-31.86,27.41-55.61,27.41-24.62,0-46-11.84-56.8-29.22-.72-.89-1.41-1.8-2.06-2.72-.73-.74-1.11-1.16-1.11-1.16H2.3A75.13,75.13,0,0,0,60.11,148.85Z" style="fill:url(#Dégradé_sans_nom_13)"/><polygon points="126.01 60.4 126.01 65.69 132.89 65.69 132.89 91.35 138.45 91.35 138.45 65.69 145.3 65.69 145.3 60.4 126.01 60.4" style="fill:url(#Dégradé_sans_nom_10)"/><path d="M18.23,65.69v-5.2H5.06a2.83,2.83,0,0,0-2.81,2.77V91.35H7.81V77.12H17.86V71.83H7.81V65.69Z" style="fill:url(#Dégradé_sans_nom_10-2)"/><path d="M37.42,61.59h0l-.08-.19a1.73,1.73,0,0,0-1.59-1,1.88,1.88,0,0,0-1.72,1l-13.95,30h6l3.33-7.26H41.55l3.14,7.26h6.09ZM31.79,78.8l3.82-8.36,3.65,8.36Z" style="fill:url(#Dégradé_sans_nom_10-3)"/><path d="M111.67,61.59h0l-.08-.19a1.73,1.73,0,0,0-1.59-1,1.88,1.88,0,0,0-1.72,1l-13.95,30h6l3.33-7.26h12.12l3.14,7.26H125ZM106,78.8l3.82-8.36,3.65,8.36Z" style="fill:url(#Dégradé_sans_nom_10-4)"/><path d="M84.24,61.4a1.48,1.48,0,0,0-1.46-.9,1.54,1.54,0,0,0-1.4,1h0L72.6,80.64,64.14,61.48h0l0-.08a1.5,1.5,0,0,0-1.37-.9,1.48,1.48,0,0,0-1.49,1L55.4,91.35h5.74l3-16.81,6.79,15.35a1.72,1.72,0,0,0,1.57.92,1.87,1.87,0,0,0,1.71-1.06l6.92-15.19,2.68,16.78h5.7Z" style="fill:url(#Dégradé_sans_nom_10-5)"/></g></g></svg>