<svg id="Calque_1" data-name="Calque 1" xmlns="http://www.w3.org/2000/svg" viewBox="0 0 63 1086"><defs><style>.cls-1{fill:#f4c900;}</style></defs><title>fond</title><path class="cls-1" d="M11.67,0h-10A1.67,1.67,0,0,0,0,1.67v10a1.66,1.66,0,0,0,1.67,1.66h10a1.66,1.66,0,0,0,1.66-1.66v-10A1.66,1.66,0,0,0,11.67,0ZM10,10H3.33V3.33H10Zm18.33,6.67h-10a1.66,1.66,0,0,0-1.66,1.66v10A1.66,1.66,0,0,0,18.33,30h10A1.67,1.67,0,0,0,30,28.33v-10A1.66,1.66,0,0,0,28.33,16.67Zm-1.66,10H20V20h6.67ZM23.33,0A6.67,6.67,0,1,0,30,6.67,6.67,6.67,0,0,0,23.33,0Zm0,10a3.34,3.34,0,1,1,3.34-3.33A3.34,3.34,0,0,1,23.33,10ZM6.67,16.67a6.67,6.67,0,1,0,6.66,6.66A6.67,6.67,0,0,0,6.67,16.67Zm0,10A3.34,3.34,0,1,1,10,23.33,3.35,3.35,0,0,1,6.67,26.67Z"/><path class="cls-1" d="M44.67,0h-10A1.67,1.67,0,0,0,33,1.67v10a1.66,1.66,0,0,0,1.67,1.66h10a1.66,1.66,0,0,0,1.66-1.66v-10A1.66,1.66,0,0,0,44.67,0ZM43,10H36.33V3.33H43Zm18.33,6.67h-10a1.66,1.66,0,0,0-1.66,1.66v10A1.66,1.66,0,0,0,51.33,30h10A1.67,1.67,0,0,0,63,28.33v-10A1.66,1.66,0,0,0,61.33,16.67Zm-1.66,10H53V20h6.67ZM56.33,0A6.67,6.67,0,1,0,63,6.67,6.67,6.67,0,0,0,56.33,0Zm0,10a3.34,3.34,0,1,1,3.34-3.33A3.34,3.34,0,0,1,56.33,10ZM39.67,16.67a6.67,6.67,0,1,0,6.66,6.66A6.67,6.67,0,0,0,39.67,16.67Zm0,10A3.34,3.34,0,1,1,43,23.33,3.35,3.35,0,0,1,39.67,26.67Z"/><path class="cls-1" d="M11.67,33h-10A1.67,1.67,0,0,0,0,34.67v10a1.66,1.66,0,0,0,1.67,1.66h10a1.66,1.66,0,0,0,1.66-1.66v-10A1.66,1.66,0,0,0,11.67,33ZM10,43H3.33V36.33H10Zm18.33,6.67h-10a1.66,1.66,0,0,0-1.66,1.66v10A1.66,1.66,0,0,0,18.33,63h10A1.67,1.67,0,0,0,30,61.33v-10A1.66,1.66,0,0,0,28.33,49.67Zm-1.66,10H20V53h6.67ZM23.33,33A6.67,6.67,0,1,0,30,39.67,6.67,6.67,0,0,0,23.33,33Zm0,10a3.34,3.34,0,1,1,3.34-3.33A3.34,3.34,0,0,1,23.33,43ZM6.67,49.67a6.67,6.67,0,1,0,6.66,6.66A6.67,6.67,0,0,0,6.67,49.67Zm0,10A3.34,3.34,0,1,1,10,56.33,3.35,3.35,0,0,1,6.67,59.67Z"/><path class="cls-1" d="M44.67,33h-10A1.67,1.67,0,0,0,33,34.67v10a1.66,1.66,0,0,0,1.67,1.66h10a1.66,1.66,0,0,0,1.66-1.66v-10A1.66,1.66,0,0,0,44.67,33ZM43,43H36.33V36.33H43Zm18.33,6.67h-10a1.66,1.66,0,0,0-1.66,1.66v10A1.66,1.66,0,0,0,51.33,63h10A1.67,1.67,0,0,0,63,61.33v-10A1.66,1.66,0,0,0,61.33,49.67Zm-1.66,10H53V53h6.67ZM56.33,33A6.67,6.67,0,1,0,63,39.67,6.67,6.67,0,0,0,56.33,33Zm0,10a3.34,3.34,0,1,1,3.34-3.33A3.34,3.34,0,0,1,56.33,43ZM39.67,49.67a6.67,6.67,0,1,0,6.66,6.66A6.67,6.67,0,0,0,39.67,49.67Zm0,10A3.34,3.34,0,1,1,43,56.33,3.35,3.35,0,0,1,39.67,59.67Z"/><path class="cls-1" d="M11.67,66h-10A1.67,1.67,0,0,0,0,67.67v10a1.66,1.66,0,0,0,1.67,1.66h10a1.66,1.66,0,0,0,1.66-1.66v-10A1.66,1.66,0,0,0,11.67,66ZM10,76H3.33V69.33H10Zm18.33,6.67h-10a1.66,1.66,0,0,0-1.66,1.66v10A1.66,1.66,0,0,0,18.33,96h10A1.67,1.67,0,0,0,30,94.33v-10A1.66,1.66,0,0,0,28.33,82.67Zm-1.66,10H20V86h6.67ZM23.33,66A6.67,6.67,0,1,0,30,72.67,6.67,6.67,0,0,0,23.33,66Zm0,10a3.34,3.34,0,1,1,3.34-3.33A3.34,3.34,0,0,1,23.33,76ZM6.67,82.67a6.67,6.67,0,1,0,6.66,6.66A6.67,6.67,0,0,0,6.67,82.67Zm0,10A3.34,3.34,0,1,1,10,89.33,3.35,3.35,0,0,1,6.67,92.67Z"/><path class="cls-1" d="M44.67,66h-10A1.67,1.67,0,0,0,33,67.67v10a1.66,1.66,0,0,0,1.67,1.66h10a1.66,1.66,0,0,0,1.66-1.66v-10A1.66,1.66,0,0,0,44.67,66ZM43,76H36.33V69.33H43Zm18.33,6.67h-10a1.66,1.66,0,0,0-1.66,1.66v10A1.66,1.66,0,0,0,51.33,96h10A1.67,1.67,0,0,0,63,94.33v-10A1.66,1.66,0,0,0,61.33,82.67Zm-1.66,10H53V86h6.67ZM56.33,66A6.67,6.67,0,1,0,63,72.67,6.67,6.67,0,0,0,56.33,66Zm0,10a3.34,3.34,0,1,1,3.34-3.33A3.34,3.34,0,0,1,56.33,76ZM39.67,82.67a6.67,6.67,0,1,0,6.66,6.66A6.67,6.67,0,0,0,39.67,82.67Zm0,10A3.34,3.34,0,1,1,43,89.33,3.35,3.35,0,0,1,39.67,92.67Z"/><path class="cls-1" d="M11.67,99h-10A1.67,1.67,0,0,0,0,100.67v10a1.66,1.66,0,0,0,1.67,1.66h10a1.66,1.66,0,0,0,1.66-1.66v-10A1.66,1.66,0,0,0,11.67,99ZM10,109H3.33v-6.67H10Zm18.33,6.67h-10a1.66,1.66,0,0,0-1.66,1.66v10A1.66,1.66,0,0,0,18.33,129h10A1.67,1.67,0,0,0,30,127.33v-10A1.66,1.66,0,0,0,28.33,115.67Zm-1.66,10H20V119h6.67ZM23.33,99A6.67,6.67,0,1,0,30,105.67,6.67,6.67,0,0,0,23.33,99Zm0,10a3.34,3.34,0,1,1,3.34-3.33A3.34,3.34,0,0,1,23.33,109ZM6.67,115.67a6.67,6.67,0,1,0,6.66,6.66A6.67,6.67,0,0,0,6.67,115.67Zm0,10A3.34,3.34,0,1,1,10,122.33,3.35,3.35,0,0,1,6.67,125.67Z"/><path class="cls-1" d="M44.67,99h-10A1.67,1.67,0,0,0,33,100.67v10a1.66,1.66,0,0,0,1.67,1.66h10a1.66,1.66,0,0,0,1.66-1.66v-10A1.66,1.66,0,0,0,44.67,99ZM43,109H36.33v-6.67H43Zm18.33,6.67h-10a1.66,1.66,0,0,0-1.66,1.66v10A1.66,1.66,0,0,0,51.33,129h10A1.67,1.67,0,0,0,63,127.33v-10A1.66,1.66,0,0,0,61.33,115.67Zm-1.66,10H53V119h6.67ZM56.33,99A6.67,6.67,0,1,0,63,105.67,6.67,6.67,0,0,0,56.33,99Zm0,10a3.34,3.34,0,1,1,3.34-3.33A3.34,3.34,0,0,1,56.33,109Zm-16.66,6.67a6.67,6.67,0,1,0,6.66,6.66A6.67,6.67,0,0,0,39.67,115.67Zm0,10A3.34,3.34,0,1,1,43,122.33,3.35,3.35,0,0,1,39.67,125.67Z"/><path class="cls-1" d="M11.67,132h-10A1.67,1.67,0,0,0,0,133.67v10a1.66,1.66,0,0,0,1.67,1.66h10a1.66,1.66,0,0,0,1.66-1.66v-10A1.66,1.66,0,0,0,11.67,132ZM10,142H3.33v-6.67H10Zm18.33,6.67h-10a1.66,1.66,0,0,0-1.66,1.66v10A1.66,1.66,0,0,0,18.33,162h10A1.67,1.67,0,0,0,30,160.33v-10A1.66,1.66,0,0,0,28.33,148.67Zm-1.66,10H20V152h6.67ZM23.33,132A6.67,6.67,0,1,0,30,138.67,6.67,6.67,0,0,0,23.33,132Zm0,10a3.34,3.34,0,1,1,3.34-3.33A3.34,3.34,0,0,1,23.33,142ZM6.67,148.67a6.67,6.67,0,1,0,6.66,6.66A6.67,6.67,0,0,0,6.67,148.67Zm0,10A3.34,3.34,0,1,1,10,155.33,3.35,3.35,0,0,1,6.67,158.67Z"/><path class="cls-1" d="M44.67,132h-10A1.67,1.67,0,0,0,33,133.67v10a1.66,1.66,0,0,0,1.67,1.66h10a1.66,1.66,0,0,0,1.66-1.66v-10A1.66,1.66,0,0,0,44.67,132ZM43,142H36.33v-6.67H43Zm18.33,6.67h-10a1.66,1.66,0,0,0-1.66,1.66v10A1.66,1.66,0,0,0,51.33,162h10A1.67,1.67,0,0,0,63,160.33v-10A1.66,1.66,0,0,0,61.33,148.67Zm-1.66,10H53V152h6.67ZM56.33,132A6.67,6.67,0,1,0,63,138.67,6.67,6.67,0,0,0,56.33,132Zm0,10a3.34,3.34,0,1,1,3.34-3.33A3.34,3.34,0,0,1,56.33,142Zm-16.66,6.67a6.67,6.67,0,1,0,6.66,6.66A6.67,6.67,0,0,0,39.67,148.67Zm0,10A3.34,3.34,0,1,1,43,155.33,3.35,3.35,0,0,1,39.67,158.67Z"/><path class="cls-1" d="M11.67,165h-10A1.67,1.67,0,0,0,0,166.67v10a1.66,1.66,0,0,0,1.67,1.66h10a1.66,1.66,0,0,0,1.66-1.66v-10A1.66,1.66,0,0,0,11.67,165ZM10,175H3.33v-6.67H10Zm18.33,6.67h-10a1.66,1.66,0,0,0-1.66,1.66v10A1.66,1.66,0,0,0,18.33,195h10A1.67,1.67,0,0,0,30,193.33v-10A1.66,1.66,0,0,0,28.33,181.67Zm-1.66,10H20V185h6.67ZM23.33,165A6.67,6.67,0,1,0,30,171.67,6.67,6.67,0,0,0,23.33,165Zm0,10a3.34,3.34,0,1,1,3.34-3.33A3.34,3.34,0,0,1,23.33,175ZM6.67,181.67a6.67,6.67,0,1,0,6.66,6.66A6.67,6.67,0,0,0,6.67,181.67Zm0,10A3.34,3.34,0,1,1,10,188.33,3.35,3.35,0,0,1,6.67,191.67Z"/><path class="cls-1" d="M44.67,165h-10A1.67,1.67,0,0,0,33,166.67v10a1.66,1.66,0,0,0,1.67,1.66h10a1.66,1.66,0,0,0,1.66-1.66v-10A1.66,1.66,0,0,0,44.67,165ZM43,175H36.33v-6.67H43Zm18.33,6.67h-10a1.66,1.66,0,0,0-1.66,1.66v10A1.66,1.66,0,0,0,51.33,195h10A1.67,1.67,0,0,0,63,193.33v-10A1.66,1.66,0,0,0,61.33,181.67Zm-1.66,10H53V185h6.67ZM56.33,165A6.67,6.67,0,1,0,63,171.67,6.67,6.67,0,0,0,56.33,165Zm0,10a3.34,3.34,0,1,1,3.34-3.33A3.34,3.34,0,0,1,56.33,175Zm-16.66,6.67a6.67,6.67,0,1,0,6.66,6.66A6.67,6.67,0,0,0,39.67,181.67Zm0,10A3.34,3.34,0,1,1,43,188.33,3.35,3.35,0,0,1,39.67,191.67Z"/><path class="cls-1" d="M11.67,198h-10A1.67,1.67,0,0,0,0,199.67v10a1.66,1.66,0,0,0,1.67,1.66h10a1.66,1.66,0,0,0,1.66-1.66v-10A1.66,1.66,0,0,0,11.67,198ZM10,208H3.33v-6.67H10Zm18.33,6.67h-10a1.66,1.66,0,0,0-1.66,1.66v10A1.66,1.66,0,0,0,18.33,228h10A1.67,1.67,0,0,0,30,226.33v-10A1.66,1.66,0,0,0,28.33,214.67Zm-1.66,10H20V218h6.67ZM23.33,198A6.67,6.67,0,1,0,30,204.67,6.67,6.67,0,0,0,23.33,198Zm0,10a3.34,3.34,0,1,1,3.34-3.33A3.34,3.34,0,0,1,23.33,208ZM6.67,214.67a6.67,6.67,0,1,0,6.66,6.66A6.67,6.67,0,0,0,6.67,214.67Zm0,10A3.34,3.34,0,1,1,10,221.33,3.35,3.35,0,0,1,6.67,224.67Z"/><path class="cls-1" d="M44.67,198h-10A1.67,1.67,0,0,0,33,199.67v10a1.66,1.66,0,0,0,1.67,1.66h10a1.66,1.66,0,0,0,1.66-1.66v-10A1.66,1.66,0,0,0,44.67,198ZM43,208H36.33v-6.67H43Zm18.33,6.67h-10a1.66,1.66,0,0,0-1.66,1.66v10A1.66,1.66,0,0,0,51.33,228h10A1.67,1.67,0,0,0,63,226.33v-10A1.66,1.66,0,0,0,61.33,214.67Zm-1.66,10H53V218h6.67ZM56.33,198A6.67,6.67,0,1,0,63,204.67,6.67,6.67,0,0,0,56.33,198Zm0,10a3.34,3.34,0,1,1,3.34-3.33A3.34,3.34,0,0,1,56.33,208Zm-16.66,6.67a6.67,6.67,0,1,0,6.66,6.66A6.67,6.67,0,0,0,39.67,214.67Zm0,10A3.34,3.34,0,1,1,43,221.33,3.35,3.35,0,0,1,39.67,224.67Z"/><path class="cls-1" d="M11.67,231h-10A1.67,1.67,0,0,0,0,232.67v10a1.66,1.66,0,0,0,1.67,1.66h10a1.66,1.66,0,0,0,1.66-1.66v-10A1.66,1.66,0,0,0,11.67,231ZM10,241H3.33v-6.67H10Zm18.33,6.67h-10a1.66,1.66,0,0,0-1.66,1.66v10A1.66,1.66,0,0,0,18.33,261h10A1.67,1.67,0,0,0,30,259.33v-10A1.66,1.66,0,0,0,28.33,247.67Zm-1.66,10H20V251h6.67ZM23.33,231A6.67,6.67,0,1,0,30,237.67,6.67,6.67,0,0,0,23.33,231Zm0,10a3.34,3.34,0,1,1,3.34-3.33A3.34,3.34,0,0,1,23.33,241ZM6.67,247.67a6.67,6.67,0,1,0,6.66,6.66A6.67,6.67,0,0,0,6.67,247.67Zm0,10A3.34,3.34,0,1,1,10,254.33,3.35,3.35,0,0,1,6.67,257.67Z"/><path class="cls-1" d="M44.67,231h-10A1.67,1.67,0,0,0,33,232.67v10a1.66,1.66,0,0,0,1.67,1.66h10a1.66,1.66,0,0,0,1.66-1.66v-10A1.66,1.66,0,0,0,44.67,231ZM43,241H36.33v-6.67H43Zm18.33,6.67h-10a1.66,1.66,0,0,0-1.66,1.66v10A1.66,1.66,0,0,0,51.33,261h10A1.67,1.67,0,0,0,63,259.33v-10A1.66,1.66,0,0,0,61.33,247.67Zm-1.66,10H53V251h6.67ZM56.33,231A6.67,6.67,0,1,0,63,237.67,6.67,6.67,0,0,0,56.33,231Zm0,10a3.34,3.34,0,1,1,3.34-3.33A3.34,3.34,0,0,1,56.33,241Zm-16.66,6.67a6.67,6.67,0,1,0,6.66,6.66A6.67,6.67,0,0,0,39.67,247.67Zm0,10A3.34,3.34,0,1,1,43,254.33,3.35,3.35,0,0,1,39.67,257.67Z"/><path class="cls-1" d="M11.67,264h-10A1.67,1.67,0,0,0,0,265.67v10a1.66,1.66,0,0,0,1.67,1.66h10a1.66,1.66,0,0,0,1.66-1.66v-10A1.66,1.66,0,0,0,11.67,264ZM10,274H3.33v-6.67H10Zm18.33,6.67h-10a1.66,1.66,0,0,0-1.66,1.66v10A1.66,1.66,0,0,0,18.33,294h10A1.67,1.67,0,0,0,30,292.33v-10A1.66,1.66,0,0,0,28.33,280.67Zm-1.66,10H20V284h6.67ZM23.33,264A6.67,6.67,0,1,0,30,270.67,6.67,6.67,0,0,0,23.33,264Zm0,10a3.34,3.34,0,1,1,3.34-3.33A3.34,3.34,0,0,1,23.33,274ZM6.67,280.67a6.67,6.67,0,1,0,6.66,6.66A6.67,6.67,0,0,0,6.67,280.67Zm0,10A3.34,3.34,0,1,1,10,287.33,3.35,3.35,0,0,1,6.67,290.67Z"/><path class="cls-1" d="M44.67,264h-10A1.67,1.67,0,0,0,33,265.67v10a1.66,1.66,0,0,0,1.67,1.66h10a1.66,1.66,0,0,0,1.66-1.66v-10A1.66,1.66,0,0,0,44.67,264ZM43,274H36.33v-6.67H43Zm18.33,6.67h-10a1.66,1.66,0,0,0-1.66,1.66v10A1.66,1.66,0,0,0,51.33,294h10A1.67,1.67,0,0,0,63,292.33v-10A1.66,1.66,0,0,0,61.33,280.67Zm-1.66,10H53V284h6.67ZM56.33,264A6.67,6.67,0,1,0,63,270.67,6.67,6.67,0,0,0,56.33,264Zm0,10a3.34,3.34,0,1,1,3.34-3.33A3.34,3.34,0,0,1,56.33,274Zm-16.66,6.67a6.67,6.67,0,1,0,6.66,6.66A6.67,6.67,0,0,0,39.67,280.67Zm0,10A3.34,3.34,0,1,1,43,287.33,3.35,3.35,0,0,1,39.67,290.67Z"/><path class="cls-1" d="M11.67,297h-10A1.67,1.67,0,0,0,0,298.67v10a1.66,1.66,0,0,0,1.67,1.66h10a1.66,1.66,0,0,0,1.66-1.66v-10A1.66,1.66,0,0,0,11.67,297ZM10,307H3.33v-6.67H10Zm18.33,6.67h-10a1.66,1.66,0,0,0-1.66,1.66v10A1.66,1.66,0,0,0,18.33,327h10A1.67,1.67,0,0,0,30,325.33v-10A1.66,1.66,0,0,0,28.33,313.67Zm-1.66,10H20V317h6.67ZM23.33,297A6.67,6.67,0,1,0,30,303.67,6.67,6.67,0,0,0,23.33,297Zm0,10a3.34,3.34,0,1,1,3.34-3.33A3.34,3.34,0,0,1,23.33,307ZM6.67,313.67a6.67,6.67,0,1,0,6.66,6.66A6.67,6.67,0,0,0,6.67,313.67Zm0,10A3.34,3.34,0,1,1,10,320.33,3.35,3.35,0,0,1,6.67,323.67Z"/><path class="cls-1" d="M44.67,297h-10A1.67,1.67,0,0,0,33,298.67v10a1.66,1.66,0,0,0,1.67,1.66h10a1.66,1.66,0,0,0,1.66-1.66v-10A1.66,1.66,0,0,0,44.67,297ZM43,307H36.33v-6.67H43Zm18.33,6.67h-10a1.66,1.66,0,0,0-1.66,1.66v10A1.66,1.66,0,0,0,51.33,327h10A1.67,1.67,0,0,0,63,325.33v-10A1.66,1.66,0,0,0,61.33,313.67Zm-1.66,10H53V317h6.67ZM56.33,297A6.67,6.67,0,1,0,63,303.67,6.67,6.67,0,0,0,56.33,297Zm0,10a3.34,3.34,0,1,1,3.34-3.33A3.34,3.34,0,0,1,56.33,307Zm-16.66,6.67a6.67,6.67,0,1,0,6.66,6.66A6.67,6.67,0,0,0,39.67,313.67Zm0,10A3.34,3.34,0,1,1,43,320.33,3.35,3.35,0,0,1,39.67,323.67Z"/><path class="cls-1" d="M11.67,330h-10A1.67,1.67,0,0,0,0,331.67v10a1.66,1.66,0,0,0,1.67,1.66h10a1.66,1.66,0,0,0,1.66-1.66v-10A1.66,1.66,0,0,0,11.67,330ZM10,340H3.33v-6.67H10Zm18.33,6.67h-10a1.66,1.66,0,0,0-1.66,1.66v10A1.66,1.66,0,0,0,18.33,360h10A1.67,1.67,0,0,0,30,358.33v-10A1.66,1.66,0,0,0,28.33,346.67Zm-1.66,10H20V350h6.67ZM23.33,330A6.67,6.67,0,1,0,30,336.67,6.67,6.67,0,0,0,23.33,330Zm0,10a3.34,3.34,0,1,1,3.34-3.33A3.34,3.34,0,0,1,23.33,340ZM6.67,346.67a6.67,6.67,0,1,0,6.66,6.66A6.67,6.67,0,0,0,6.67,346.67Zm0,10A3.34,3.34,0,1,1,10,353.33,3.35,3.35,0,0,1,6.67,356.67Z"/><path class="cls-1" d="M44.67,330h-10A1.67,1.67,0,0,0,33,331.67v10a1.66,1.66,0,0,0,1.67,1.66h10a1.66,1.66,0,0,0,1.66-1.66v-10A1.66,1.66,0,0,0,44.67,330ZM43,340H36.33v-6.67H43Zm18.33,6.67h-10a1.66,1.66,0,0,0-1.66,1.66v10A1.66,1.66,0,0,0,51.33,360h10A1.67,1.67,0,0,0,63,358.33v-10A1.66,1.66,0,0,0,61.33,346.67Zm-1.66,10H53V350h6.67ZM56.33,330A6.67,6.67,0,1,0,63,336.67,6.67,6.67,0,0,0,56.33,330Zm0,10a3.34,3.34,0,1,1,3.34-3.33A3.34,3.34,0,0,1,56.33,340Zm-16.66,6.67a6.67,6.67,0,1,0,6.66,6.66A6.67,6.67,0,0,0,39.67,346.67Zm0,10A3.34,3.34,0,1,1,43,353.33,3.35,3.35,0,0,1,39.67,356.67Z"/><path class="cls-1" d="M11.67,363h-10A1.67,1.67,0,0,0,0,364.67v10a1.66,1.66,0,0,0,1.67,1.66h10a1.66,1.66,0,0,0,1.66-1.66v-10A1.66,1.66,0,0,0,11.67,363ZM10,373H3.33v-6.67H10Zm18.33,6.67h-10a1.66,1.66,0,0,0-1.66,1.66v10A1.66,1.66,0,0,0,18.33,393h10A1.67,1.67,0,0,0,30,391.33v-10A1.66,1.66,0,0,0,28.33,379.67Zm-1.66,10H20V383h6.67ZM23.33,363A6.67,6.67,0,1,0,30,369.67,6.67,6.67,0,0,0,23.33,363Zm0,10a3.34,3.34,0,1,1,3.34-3.33A3.34,3.34,0,0,1,23.33,373ZM6.67,379.67a6.67,6.67,0,1,0,6.66,6.66A6.67,6.67,0,0,0,6.67,379.67Zm0,10A3.34,3.34,0,1,1,10,386.33,3.35,3.35,0,0,1,6.67,389.67Z"/><path class="cls-1" d="M44.67,363h-10A1.67,1.67,0,0,0,33,364.67v10a1.66,1.66,0,0,0,1.67,1.66h10a1.66,1.66,0,0,0,1.66-1.66v-10A1.66,1.66,0,0,0,44.67,363ZM43,373H36.33v-6.67H43Zm18.33,6.67h-10a1.66,1.66,0,0,0-1.66,1.66v10A1.66,1.66,0,0,0,51.33,393h10A1.67,1.67,0,0,0,63,391.33v-10A1.66,1.66,0,0,0,61.33,379.67Zm-1.66,10H53V383h6.67ZM56.33,363A6.67,6.67,0,1,0,63,369.67,6.67,6.67,0,0,0,56.33,363Zm0,10a3.34,3.34,0,1,1,3.34-3.33A3.34,3.34,0,0,1,56.33,373Zm-16.66,6.67a6.67,6.67,0,1,0,6.66,6.66A6.67,6.67,0,0,0,39.67,379.67Zm0,10A3.34,3.34,0,1,1,43,386.33,3.35,3.35,0,0,1,39.67,389.67Z"/><path class="cls-1" d="M11.67,396h-10A1.67,1.67,0,0,0,0,397.67v10a1.66,1.66,0,0,0,1.67,1.66h10a1.66,1.66,0,0,0,1.66-1.66v-10A1.66,1.66,0,0,0,11.67,396ZM10,406H3.33v-6.67H10Zm18.33,6.67h-10a1.66,1.66,0,0,0-1.66,1.66v10A1.66,1.66,0,0,0,18.33,426h10A1.67,1.67,0,0,0,30,424.33v-10A1.66,1.66,0,0,0,28.33,412.67Zm-1.66,10H20V416h6.67ZM23.33,396A6.67,6.67,0,1,0,30,402.67,6.67,6.67,0,0,0,23.33,396Zm0,10a3.34,3.34,0,1,1,3.34-3.33A3.34,3.34,0,0,1,23.33,406ZM6.67,412.67a6.67,6.67,0,1,0,6.66,6.66A6.67,6.67,0,0,0,6.67,412.67Zm0,10A3.34,3.34,0,1,1,10,419.33,3.35,3.35,0,0,1,6.67,422.67Z"/><path class="cls-1" d="M44.67,396h-10A1.67,1.67,0,0,0,33,397.67v10a1.66,1.66,0,0,0,1.67,1.66h10a1.66,1.66,0,0,0,1.66-1.66v-10A1.66,1.66,0,0,0,44.67,396ZM43,406H36.33v-6.67H43Zm18.33,6.67h-10a1.66,1.66,0,0,0-1.66,1.66v10A1.66,1.66,0,0,0,51.33,426h10A1.67,1.67,0,0,0,63,424.33v-10A1.66,1.66,0,0,0,61.33,412.67Zm-1.66,10H53V416h6.67ZM56.33,396A6.67,6.67,0,1,0,63,402.67,6.67,6.67,0,0,0,56.33,396Zm0,10a3.34,3.34,0,1,1,3.34-3.33A3.34,3.34,0,0,1,56.33,406Zm-16.66,6.67a6.67,6.67,0,1,0,6.66,6.66A6.67,6.67,0,0,0,39.67,412.67Zm0,10A3.34,3.34,0,1,1,43,419.33,3.35,3.35,0,0,1,39.67,422.67Z"/><path class="cls-1" d="M11.67,429h-10A1.67,1.67,0,0,0,0,430.67v10a1.66,1.66,0,0,0,1.67,1.66h10a1.66,1.66,0,0,0,1.66-1.66v-10A1.66,1.66,0,0,0,11.67,429ZM10,439H3.33v-6.67H10Zm18.33,6.67h-10a1.66,1.66,0,0,0-1.66,1.66v10A1.66,1.66,0,0,0,18.33,459h10A1.67,1.67,0,0,0,30,457.33v-10A1.66,1.66,0,0,0,28.33,445.67Zm-1.66,10H20V449h6.67ZM23.33,429A6.67,6.67,0,1,0,30,435.67,6.67,6.67,0,0,0,23.33,429Zm0,10a3.34,3.34,0,1,1,3.34-3.33A3.34,3.34,0,0,1,23.33,439ZM6.67,445.67a6.67,6.67,0,1,0,6.66,6.66A6.67,6.67,0,0,0,6.67,445.67Zm0,10A3.34,3.34,0,1,1,10,452.33,3.35,3.35,0,0,1,6.67,455.67Z"/><path class="cls-1" d="M44.67,429h-10A1.67,1.67,0,0,0,33,430.67v10a1.66,1.66,0,0,0,1.67,1.66h10a1.66,1.66,0,0,0,1.66-1.66v-10A1.66,1.66,0,0,0,44.67,429ZM43,439H36.33v-6.67H43Zm18.33,6.67h-10a1.66,1.66,0,0,0-1.66,1.66v10A1.66,1.66,0,0,0,51.33,459h10A1.67,1.67,0,0,0,63,457.33v-10A1.66,1.66,0,0,0,61.33,445.67Zm-1.66,10H53V449h6.67ZM56.33,429A6.67,6.67,0,1,0,63,435.67,6.67,6.67,0,0,0,56.33,429Zm0,10a3.34,3.34,0,1,1,3.34-3.33A3.34,3.34,0,0,1,56.33,439Zm-16.66,6.67a6.67,6.67,0,1,0,6.66,6.66A6.67,6.67,0,0,0,39.67,445.67Zm0,10A3.34,3.34,0,1,1,43,452.33,3.35,3.35,0,0,1,39.67,455.67Z"/><path class="cls-1" d="M11.67,462h-10A1.67,1.67,0,0,0,0,463.67v10a1.66,1.66,0,0,0,1.67,1.66h10a1.66,1.66,0,0,0,1.66-1.66v-10A1.66,1.66,0,0,0,11.67,462ZM10,472H3.33v-6.67H10Zm18.33,6.67h-10a1.66,1.66,0,0,0-1.66,1.66v10A1.66,1.66,0,0,0,18.33,492h10A1.67,1.67,0,0,0,30,490.33v-10A1.66,1.66,0,0,0,28.33,478.67Zm-1.66,10H20V482h6.67ZM23.33,462A6.67,6.67,0,1,0,30,468.67,6.67,6.67,0,0,0,23.33,462Zm0,10a3.34,3.34,0,1,1,3.34-3.33A3.34,3.34,0,0,1,23.33,472ZM6.67,478.67a6.67,6.67,0,1,0,6.66,6.66A6.67,6.67,0,0,0,6.67,478.67Zm0,10A3.34,3.34,0,1,1,10,485.33,3.35,3.35,0,0,1,6.67,488.67Z"/><path class="cls-1" d="M44.67,462h-10A1.67,1.67,0,0,0,33,463.67v10a1.66,1.66,0,0,0,1.67,1.66h10a1.66,1.66,0,0,0,1.66-1.66v-10A1.66,1.66,0,0,0,44.67,462ZM43,472H36.33v-6.67H43Zm18.33,6.67h-10a1.66,1.66,0,0,0-1.66,1.66v10A1.66,1.66,0,0,0,51.33,492h10A1.67,1.67,0,0,0,63,490.33v-10A1.66,1.66,0,0,0,61.33,478.67Zm-1.66,10H53V482h6.67ZM56.33,462A6.67,6.67,0,1,0,63,468.67,6.67,6.67,0,0,0,56.33,462Zm0,10a3.34,3.34,0,1,1,3.34-3.33A3.34,3.34,0,0,1,56.33,472Zm-16.66,6.67a6.67,6.67,0,1,0,6.66,6.66A6.67,6.67,0,0,0,39.67,478.67Zm0,10A3.34,3.34,0,1,1,43,485.33,3.35,3.35,0,0,1,39.67,488.67Z"/><path class="cls-1" d="M11.67,495h-10A1.67,1.67,0,0,0,0,496.67v10a1.66,1.66,0,0,0,1.67,1.66h10a1.66,1.66,0,0,0,1.66-1.66v-10A1.66,1.66,0,0,0,11.67,495ZM10,505H3.33v-6.67H10Zm18.33,6.67h-10a1.66,1.66,0,0,0-1.66,1.66v10A1.66,1.66,0,0,0,18.33,525h10A1.67,1.67,0,0,0,30,523.33v-10A1.66,1.66,0,0,0,28.33,511.67Zm-1.66,10H20V515h6.67ZM23.33,495A6.67,6.67,0,1,0,30,501.67,6.67,6.67,0,0,0,23.33,495Zm0,10a3.34,3.34,0,1,1,3.34-3.33A3.34,3.34,0,0,1,23.33,505ZM6.67,511.67a6.67,6.67,0,1,0,6.66,6.66A6.67,6.67,0,0,0,6.67,511.67Zm0,10A3.34,3.34,0,1,1,10,518.33,3.35,3.35,0,0,1,6.67,521.67Z"/><path class="cls-1" d="M44.67,495h-10A1.67,1.67,0,0,0,33,496.67v10a1.66,1.66,0,0,0,1.67,1.66h10a1.66,1.66,0,0,0,1.66-1.66v-10A1.66,1.66,0,0,0,44.67,495ZM43,505H36.33v-6.67H43Zm18.33,6.67h-10a1.66,1.66,0,0,0-1.66,1.66v10A1.66,1.66,0,0,0,51.33,525h10A1.67,1.67,0,0,0,63,523.33v-10A1.66,1.66,0,0,0,61.33,511.67Zm-1.66,10H53V515h6.67ZM56.33,495A6.67,6.67,0,1,0,63,501.67,6.67,6.67,0,0,0,56.33,495Zm0,10a3.34,3.34,0,1,1,3.34-3.33A3.34,3.34,0,0,1,56.33,505Zm-16.66,6.67a6.67,6.67,0,1,0,6.66,6.66A6.67,6.67,0,0,0,39.67,511.67Zm0,10A3.34,3.34,0,1,1,43,518.33,3.35,3.35,0,0,1,39.67,521.67Z"/><path class="cls-1" d="M11.67,528h-10A1.67,1.67,0,0,0,0,529.67v10a1.66,1.66,0,0,0,1.67,1.66h10a1.66,1.66,0,0,0,1.66-1.66v-10A1.66,1.66,0,0,0,11.67,528ZM10,538H3.33v-6.67H10Zm18.33,6.67h-10a1.66,1.66,0,0,0-1.66,1.66v10A1.66,1.66,0,0,0,18.33,558h10A1.67,1.67,0,0,0,30,556.33v-10A1.66,1.66,0,0,0,28.33,544.67Zm-1.66,10H20V548h6.67ZM23.33,528A6.67,6.67,0,1,0,30,534.67,6.67,6.67,0,0,0,23.33,528Zm0,10a3.34,3.34,0,1,1,3.34-3.33A3.34,3.34,0,0,1,23.33,538ZM6.67,544.67a6.67,6.67,0,1,0,6.66,6.66A6.67,6.67,0,0,0,6.67,544.67Zm0,10A3.34,3.34,0,1,1,10,551.33,3.35,3.35,0,0,1,6.67,554.67Z"/><path class="cls-1" d="M44.67,528h-10A1.67,1.67,0,0,0,33,529.67v10a1.66,1.66,0,0,0,1.67,1.66h10a1.66,1.66,0,0,0,1.66-1.66v-10A1.66,1.66,0,0,0,44.67,528ZM43,538H36.33v-6.67H43Zm18.33,6.67h-10a1.66,1.66,0,0,0-1.66,1.66v10A1.66,1.66,0,0,0,51.33,558h10A1.67,1.67,0,0,0,63,556.33v-10A1.66,1.66,0,0,0,61.33,544.67Zm-1.66,10H53V548h6.67ZM56.33,528A6.67,6.67,0,1,0,63,534.67,6.67,6.67,0,0,0,56.33,528Zm0,10a3.34,3.34,0,1,1,3.34-3.33A3.34,3.34,0,0,1,56.33,538Zm-16.66,6.67a6.67,6.67,0,1,0,6.66,6.66A6.67,6.67,0,0,0,39.67,544.67Zm0,10A3.34,3.34,0,1,1,43,551.33,3.35,3.35,0,0,1,39.67,554.67Z"/><path class="cls-1" d="M11.67,561h-10A1.67,1.67,0,0,0,0,562.67v10a1.66,1.66,0,0,0,1.67,1.66h10a1.66,1.66,0,0,0,1.66-1.66v-10A1.66,1.66,0,0,0,11.67,561ZM10,571H3.33v-6.67H10Zm18.33,6.67h-10a1.66,1.66,0,0,0-1.66,1.66v10A1.66,1.66,0,0,0,18.33,591h10A1.67,1.67,0,0,0,30,589.33v-10A1.66,1.66,0,0,0,28.33,577.67Zm-1.66,10H20V581h6.67ZM23.33,561A6.67,6.67,0,1,0,30,567.67,6.67,6.67,0,0,0,23.33,561Zm0,10a3.34,3.34,0,1,1,3.34-3.33A3.34,3.34,0,0,1,23.33,571ZM6.67,577.67a6.67,6.67,0,1,0,6.66,6.66A6.67,6.67,0,0,0,6.67,577.67Zm0,10A3.34,3.34,0,1,1,10,584.33,3.35,3.35,0,0,1,6.67,587.67Z"/><path class="cls-1" d="M44.67,561h-10A1.67,1.67,0,0,0,33,562.67v10a1.66,1.66,0,0,0,1.67,1.66h10a1.66,1.66,0,0,0,1.66-1.66v-10A1.66,1.66,0,0,0,44.67,561ZM43,571H36.33v-6.67H43Zm18.33,6.67h-10a1.66,1.66,0,0,0-1.66,1.66v10A1.66,1.66,0,0,0,51.33,591h10A1.67,1.67,0,0,0,63,589.33v-10A1.66,1.66,0,0,0,61.33,577.67Zm-1.66,10H53V581h6.67ZM56.33,561A6.67,6.67,0,1,0,63,567.67,6.67,6.67,0,0,0,56.33,561Zm0,10a3.34,3.34,0,1,1,3.34-3.33A3.34,3.34,0,0,1,56.33,571Zm-16.66,6.67a6.67,6.67,0,1,0,6.66,6.66A6.67,6.67,0,0,0,39.67,577.67Zm0,10A3.34,3.34,0,1,1,43,584.33,3.35,3.35,0,0,1,39.67,587.67Z"/><path class="cls-1" d="M11.67,594h-10A1.67,1.67,0,0,0,0,595.67v10a1.66,1.66,0,0,0,1.67,1.66h10a1.66,1.66,0,0,0,1.66-1.66v-10A1.66,1.66,0,0,0,11.67,594ZM10,604H3.33v-6.67H10Zm18.33,6.67h-10a1.66,1.66,0,0,0-1.66,1.66v10A1.66,1.66,0,0,0,18.33,624h10A1.67,1.67,0,0,0,30,622.33v-10A1.66,1.66,0,0,0,28.33,610.67Zm-1.66,10H20V614h6.67ZM23.33,594A6.67,6.67,0,1,0,30,600.67,6.67,6.67,0,0,0,23.33,594Zm0,10a3.34,3.34,0,1,1,3.34-3.33A3.34,3.34,0,0,1,23.33,604ZM6.67,610.67a6.67,6.67,0,1,0,6.66,6.66A6.67,6.67,0,0,0,6.67,610.67Zm0,10A3.34,3.34,0,1,1,10,617.33,3.35,3.35,0,0,1,6.67,620.67Z"/><path class="cls-1" d="M44.67,594h-10A1.67,1.67,0,0,0,33,595.67v10a1.66,1.66,0,0,0,1.67,1.66h10a1.66,1.66,0,0,0,1.66-1.66v-10A1.66,1.66,0,0,0,44.67,594ZM43,604H36.33v-6.67H43Zm18.33,6.67h-10a1.66,1.66,0,0,0-1.66,1.66v10A1.66,1.66,0,0,0,51.33,624h10A1.67,1.67,0,0,0,63,622.33v-10A1.66,1.66,0,0,0,61.33,610.67Zm-1.66,10H53V614h6.67ZM56.33,594A6.67,6.67,0,1,0,63,600.67,6.67,6.67,0,0,0,56.33,594Zm0,10a3.34,3.34,0,1,1,3.34-3.33A3.34,3.34,0,0,1,56.33,604Zm-16.66,6.67a6.67,6.67,0,1,0,6.66,6.66A6.67,6.67,0,0,0,39.67,610.67Zm0,10A3.34,3.34,0,1,1,43,617.33,3.35,3.35,0,0,1,39.67,620.67Z"/><path class="cls-1" d="M11.67,627h-10A1.67,1.67,0,0,0,0,628.67v10a1.66,1.66,0,0,0,1.67,1.66h10a1.66,1.66,0,0,0,1.66-1.66v-10A1.66,1.66,0,0,0,11.67,627ZM10,637H3.33v-6.67H10Zm18.33,6.67h-10a1.66,1.66,0,0,0-1.66,1.66v10A1.66,1.66,0,0,0,18.33,657h10A1.67,1.67,0,0,0,30,655.33v-10A1.66,1.66,0,0,0,28.33,643.67Zm-1.66,10H20V647h6.67ZM23.33,627A6.67,6.67,0,1,0,30,633.67,6.67,6.67,0,0,0,23.33,627Zm0,10a3.34,3.34,0,1,1,3.34-3.33A3.34,3.34,0,0,1,23.33,637ZM6.67,643.67a6.67,6.67,0,1,0,6.66,6.66A6.67,6.67,0,0,0,6.67,643.67Zm0,10A3.34,3.34,0,1,1,10,650.33,3.35,3.35,0,0,1,6.67,653.67Z"/><path class="cls-1" d="M44.67,627h-10A1.67,1.67,0,0,0,33,628.67v10a1.66,1.66,0,0,0,1.67,1.66h10a1.66,1.66,0,0,0,1.66-1.66v-10A1.66,1.66,0,0,0,44.67,627ZM43,637H36.33v-6.67H43Zm18.33,6.67h-10a1.66,1.66,0,0,0-1.66,1.66v10A1.66,1.66,0,0,0,51.33,657h10A1.67,1.67,0,0,0,63,655.33v-10A1.66,1.66,0,0,0,61.33,643.67Zm-1.66,10H53V647h6.67ZM56.33,627A6.67,6.67,0,1,0,63,633.67,6.67,6.67,0,0,0,56.33,627Zm0,10a3.34,3.34,0,1,1,3.34-3.33A3.34,3.34,0,0,1,56.33,637Zm-16.66,6.67a6.67,6.67,0,1,0,6.66,6.66A6.67,6.67,0,0,0,39.67,643.67Zm0,10A3.34,3.34,0,1,1,43,650.33,3.35,3.35,0,0,1,39.67,653.67Z"/><path class="cls-1" d="M11.67,660h-10A1.67,1.67,0,0,0,0,661.67v10a1.66,1.66,0,0,0,1.67,1.66h10a1.66,1.66,0,0,0,1.66-1.66v-10A1.66,1.66,0,0,0,11.67,660ZM10,670H3.33v-6.67H10Zm18.33,6.67h-10a1.66,1.66,0,0,0-1.66,1.66v10A1.66,1.66,0,0,0,18.33,690h10A1.67,1.67,0,0,0,30,688.33v-10A1.66,1.66,0,0,0,28.33,676.67Zm-1.66,10H20V680h6.67ZM23.33,660A6.67,6.67,0,1,0,30,666.67,6.67,6.67,0,0,0,23.33,660Zm0,10a3.34,3.34,0,1,1,3.34-3.33A3.34,3.34,0,0,1,23.33,670ZM6.67,676.67a6.67,6.67,0,1,0,6.66,6.66A6.67,6.67,0,0,0,6.67,676.67Zm0,10A3.34,3.34,0,1,1,10,683.33,3.35,3.35,0,0,1,6.67,686.67Z"/><path class="cls-1" d="M44.67,660h-10A1.67,1.67,0,0,0,33,661.67v10a1.66,1.66,0,0,0,1.67,1.66h10a1.66,1.66,0,0,0,1.66-1.66v-10A1.66,1.66,0,0,0,44.67,660ZM43,670H36.33v-6.67H43Zm18.33,6.67h-10a1.66,1.66,0,0,0-1.66,1.66v10A1.66,1.66,0,0,0,51.33,690h10A1.67,1.67,0,0,0,63,688.33v-10A1.66,1.66,0,0,0,61.33,676.67Zm-1.66,10H53V680h6.67ZM56.33,660A6.67,6.67,0,1,0,63,666.67,6.67,6.67,0,0,0,56.33,660Zm0,10a3.34,3.34,0,1,1,3.34-3.33A3.34,3.34,0,0,1,56.33,670Zm-16.66,6.67a6.67,6.67,0,1,0,6.66,6.66A6.67,6.67,0,0,0,39.67,676.67Zm0,10A3.34,3.34,0,1,1,43,683.33,3.35,3.35,0,0,1,39.67,686.67Z"/><path class="cls-1" d="M11.67,693h-10A1.67,1.67,0,0,0,0,694.67v10a1.66,1.66,0,0,0,1.67,1.66h10a1.66,1.66,0,0,0,1.66-1.66v-10A1.66,1.66,0,0,0,11.67,693ZM10,703H3.33v-6.67H10Zm18.33,6.67h-10a1.66,1.66,0,0,0-1.66,1.66v10A1.66,1.66,0,0,0,18.33,723h10A1.67,1.67,0,0,0,30,721.33v-10A1.66,1.66,0,0,0,28.33,709.67Zm-1.66,10H20V713h6.67ZM23.33,693A6.67,6.67,0,1,0,30,699.67,6.67,6.67,0,0,0,23.33,693Zm0,10a3.34,3.34,0,1,1,3.34-3.33A3.34,3.34,0,0,1,23.33,703ZM6.67,709.67a6.67,6.67,0,1,0,6.66,6.66A6.67,6.67,0,0,0,6.67,709.67Zm0,10A3.34,3.34,0,1,1,10,716.33,3.35,3.35,0,0,1,6.67,719.67Z"/><path class="cls-1" d="M44.67,693h-10A1.67,1.67,0,0,0,33,694.67v10a1.66,1.66,0,0,0,1.67,1.66h10a1.66,1.66,0,0,0,1.66-1.66v-10A1.66,1.66,0,0,0,44.67,693ZM43,703H36.33v-6.67H43Zm18.33,6.67h-10a1.66,1.66,0,0,0-1.66,1.66v10A1.66,1.66,0,0,0,51.33,723h10A1.67,1.67,0,0,0,63,721.33v-10A1.66,1.66,0,0,0,61.33,709.67Zm-1.66,10H53V713h6.67ZM56.33,693A6.67,6.67,0,1,0,63,699.67,6.67,6.67,0,0,0,56.33,693Zm0,10a3.34,3.34,0,1,1,3.34-3.33A3.34,3.34,0,0,1,56.33,703Zm-16.66,6.67a6.67,6.67,0,1,0,6.66,6.66A6.67,6.67,0,0,0,39.67,709.67Zm0,10A3.34,3.34,0,1,1,43,716.33,3.35,3.35,0,0,1,39.67,719.67Z"/><path class="cls-1" d="M11.67,726h-10A1.67,1.67,0,0,0,0,727.67v10a1.66,1.66,0,0,0,1.67,1.66h10a1.66,1.66,0,0,0,1.66-1.66v-10A1.66,1.66,0,0,0,11.67,726ZM10,736H3.33v-6.67H10Zm18.33,6.67h-10a1.66,1.66,0,0,0-1.66,1.66v10A1.66,1.66,0,0,0,18.33,756h10A1.67,1.67,0,0,0,30,754.33v-10A1.66,1.66,0,0,0,28.33,742.67Zm-1.66,10H20V746h6.67ZM23.33,726A6.67,6.67,0,1,0,30,732.67,6.67,6.67,0,0,0,23.33,726Zm0,10a3.34,3.34,0,1,1,3.34-3.33A3.34,3.34,0,0,1,23.33,736ZM6.67,742.67a6.67,6.67,0,1,0,6.66,6.66A6.67,6.67,0,0,0,6.67,742.67Zm0,10A3.34,3.34,0,1,1,10,749.33,3.35,3.35,0,0,1,6.67,752.67Z"/><path class="cls-1" d="M44.67,726h-10A1.67,1.67,0,0,0,33,727.67v10a1.66,1.66,0,0,0,1.67,1.66h10a1.66,1.66,0,0,0,1.66-1.66v-10A1.66,1.66,0,0,0,44.67,726ZM43,736H36.33v-6.67H43Zm18.33,6.67h-10a1.66,1.66,0,0,0-1.66,1.66v10A1.66,1.66,0,0,0,51.33,756h10A1.67,1.67,0,0,0,63,754.33v-10A1.66,1.66,0,0,0,61.33,742.67Zm-1.66,10H53V746h6.67ZM56.33,726A6.67,6.67,0,1,0,63,732.67,6.67,6.67,0,0,0,56.33,726Zm0,10a3.34,3.34,0,1,1,3.34-3.33A3.34,3.34,0,0,1,56.33,736Zm-16.66,6.67a6.67,6.67,0,1,0,6.66,6.66A6.67,6.67,0,0,0,39.67,742.67Zm0,10A3.34,3.34,0,1,1,43,749.33,3.35,3.35,0,0,1,39.67,752.67Z"/><path class="cls-1" d="M11.67,759h-10A1.67,1.67,0,0,0,0,760.67v10a1.66,1.66,0,0,0,1.67,1.66h10a1.66,1.66,0,0,0,1.66-1.66v-10A1.66,1.66,0,0,0,11.67,759ZM10,769H3.33v-6.67H10Zm18.33,6.67h-10a1.66,1.66,0,0,0-1.66,1.66v10A1.66,1.66,0,0,0,18.33,789h10A1.67,1.67,0,0,0,30,787.33v-10A1.66,1.66,0,0,0,28.33,775.67Zm-1.66,10H20V779h6.67ZM23.33,759A6.67,6.67,0,1,0,30,765.67,6.67,6.67,0,0,0,23.33,759Zm0,10a3.34,3.34,0,1,1,3.34-3.33A3.34,3.34,0,0,1,23.33,769ZM6.67,775.67a6.67,6.67,0,1,0,6.66,6.66A6.67,6.67,0,0,0,6.67,775.67Zm0,10A3.34,3.34,0,1,1,10,782.33,3.35,3.35,0,0,1,6.67,785.67Z"/><path class="cls-1" d="M44.67,759h-10A1.67,1.67,0,0,0,33,760.67v10a1.66,1.66,0,0,0,1.67,1.66h10a1.66,1.66,0,0,0,1.66-1.66v-10A1.66,1.66,0,0,0,44.67,759ZM43,769H36.33v-6.67H43Zm18.33,6.67h-10a1.66,1.66,0,0,0-1.66,1.66v10A1.66,1.66,0,0,0,51.33,789h10A1.67,1.67,0,0,0,63,787.33v-10A1.66,1.66,0,0,0,61.33,775.67Zm-1.66,10H53V779h6.67ZM56.33,759A6.67,6.67,0,1,0,63,765.67,6.67,6.67,0,0,0,56.33,759Zm0,10a3.34,3.34,0,1,1,3.34-3.33A3.34,3.34,0,0,1,56.33,769Zm-16.66,6.67a6.67,6.67,0,1,0,6.66,6.66A6.67,6.67,0,0,0,39.67,775.67Zm0,10A3.34,3.34,0,1,1,43,782.33,3.35,3.35,0,0,1,39.67,785.67Z"/><path class="cls-1" d="M11.67,792h-10A1.67,1.67,0,0,0,0,793.67v10a1.66,1.66,0,0,0,1.67,1.66h10a1.66,1.66,0,0,0,1.66-1.66v-10A1.66,1.66,0,0,0,11.67,792ZM10,802H3.33v-6.67H10Zm18.33,6.67h-10a1.66,1.66,0,0,0-1.66,1.66v10A1.66,1.66,0,0,0,18.33,822h10A1.67,1.67,0,0,0,30,820.33v-10A1.66,1.66,0,0,0,28.33,808.67Zm-1.66,10H20V812h6.67ZM23.33,792A6.67,6.67,0,1,0,30,798.67,6.67,6.67,0,0,0,23.33,792Zm0,10a3.34,3.34,0,1,1,3.34-3.33A3.34,3.34,0,0,1,23.33,802ZM6.67,808.67a6.67,6.67,0,1,0,6.66,6.66A6.67,6.67,0,0,0,6.67,808.67Zm0,10A3.34,3.34,0,1,1,10,815.33,3.35,3.35,0,0,1,6.67,818.67Z"/><path class="cls-1" d="M44.67,792h-10A1.67,1.67,0,0,0,33,793.67v10a1.66,1.66,0,0,0,1.67,1.66h10a1.66,1.66,0,0,0,1.66-1.66v-10A1.66,1.66,0,0,0,44.67,792ZM43,802H36.33v-6.67H43Zm18.33,6.67h-10a1.66,1.66,0,0,0-1.66,1.66v10A1.66,1.66,0,0,0,51.33,822h10A1.67,1.67,0,0,0,63,820.33v-10A1.66,1.66,0,0,0,61.33,808.67Zm-1.66,10H53V812h6.67ZM56.33,792A6.67,6.67,0,1,0,63,798.67,6.67,6.67,0,0,0,56.33,792Zm0,10a3.34,3.34,0,1,1,3.34-3.33A3.34,3.34,0,0,1,56.33,802Zm-16.66,6.67a6.67,6.67,0,1,0,6.66,6.66A6.67,6.67,0,0,0,39.67,808.67Zm0,10A3.34,3.34,0,1,1,43,815.33,3.35,3.35,0,0,1,39.67,818.67Z"/><path class="cls-1" d="M11.67,825h-10A1.67,1.67,0,0,0,0,826.67v10a1.66,1.66,0,0,0,1.67,1.66h10a1.66,1.66,0,0,0,1.66-1.66v-10A1.66,1.66,0,0,0,11.67,825ZM10,835H3.33v-6.67H10Zm18.33,6.67h-10a1.66,1.66,0,0,0-1.66,1.66v10A1.66,1.66,0,0,0,18.33,855h10A1.67,1.67,0,0,0,30,853.33v-10A1.66,1.66,0,0,0,28.33,841.67Zm-1.66,10H20V845h6.67ZM23.33,825A6.67,6.67,0,1,0,30,831.67,6.67,6.67,0,0,0,23.33,825Zm0,10a3.34,3.34,0,1,1,3.34-3.33A3.34,3.34,0,0,1,23.33,835ZM6.67,841.67a6.67,6.67,0,1,0,6.66,6.66A6.67,6.67,0,0,0,6.67,841.67Zm0,10A3.34,3.34,0,1,1,10,848.33,3.35,3.35,0,0,1,6.67,851.67Z"/><path class="cls-1" d="M44.67,825h-10A1.67,1.67,0,0,0,33,826.67v10a1.66,1.66,0,0,0,1.67,1.66h10a1.66,1.66,0,0,0,1.66-1.66v-10A1.66,1.66,0,0,0,44.67,825ZM43,835H36.33v-6.67H43Zm18.33,6.67h-10a1.66,1.66,0,0,0-1.66,1.66v10A1.66,1.66,0,0,0,51.33,855h10A1.67,1.67,0,0,0,63,853.33v-10A1.66,1.66,0,0,0,61.33,841.67Zm-1.66,10H53V845h6.67ZM56.33,825A6.67,6.67,0,1,0,63,831.67,6.67,6.67,0,0,0,56.33,825Zm0,10a3.34,3.34,0,1,1,3.34-3.33A3.34,3.34,0,0,1,56.33,835Zm-16.66,6.67a6.67,6.67,0,1,0,6.66,6.66A6.67,6.67,0,0,0,39.67,841.67Zm0,10A3.34,3.34,0,1,1,43,848.33,3.35,3.35,0,0,1,39.67,851.67Z"/><path class="cls-1" d="M11.67,858h-10A1.67,1.67,0,0,0,0,859.67v10a1.66,1.66,0,0,0,1.67,1.66h10a1.66,1.66,0,0,0,1.66-1.66v-10A1.66,1.66,0,0,0,11.67,858ZM10,868H3.33v-6.67H10Zm18.33,6.67h-10a1.66,1.66,0,0,0-1.66,1.66v10A1.66,1.66,0,0,0,18.33,888h10A1.67,1.67,0,0,0,30,886.33v-10A1.66,1.66,0,0,0,28.33,874.67Zm-1.66,10H20V878h6.67ZM23.33,858A6.67,6.67,0,1,0,30,864.67,6.67,6.67,0,0,0,23.33,858Zm0,10a3.34,3.34,0,1,1,3.34-3.33A3.34,3.34,0,0,1,23.33,868ZM6.67,874.67a6.67,6.67,0,1,0,6.66,6.66A6.67,6.67,0,0,0,6.67,874.67Zm0,10A3.34,3.34,0,1,1,10,881.33,3.35,3.35,0,0,1,6.67,884.67Z"/><path class="cls-1" d="M44.67,858h-10A1.67,1.67,0,0,0,33,859.67v10a1.66,1.66,0,0,0,1.67,1.66h10a1.66,1.66,0,0,0,1.66-1.66v-10A1.66,1.66,0,0,0,44.67,858ZM43,868H36.33v-6.67H43Zm18.33,6.67h-10a1.66,1.66,0,0,0-1.66,1.66v10A1.66,1.66,0,0,0,51.33,888h10A1.67,1.67,0,0,0,63,886.33v-10A1.66,1.66,0,0,0,61.33,874.67Zm-1.66,10H53V878h6.67ZM56.33,858A6.67,6.67,0,1,0,63,864.67,6.67,6.67,0,0,0,56.33,858Zm0,10a3.34,3.34,0,1,1,3.34-3.33A3.34,3.34,0,0,1,56.33,868Zm-16.66,6.67a6.67,6.67,0,1,0,6.66,6.66A6.67,6.67,0,0,0,39.67,874.67Zm0,10A3.34,3.34,0,1,1,43,881.33,3.35,3.35,0,0,1,39.67,884.67Z"/><path class="cls-1" d="M11.67,891h-10A1.67,1.67,0,0,0,0,892.67v10a1.66,1.66,0,0,0,1.67,1.66h10a1.66,1.66,0,0,0,1.66-1.66v-10A1.66,1.66,0,0,0,11.67,891ZM10,901H3.33v-6.67H10Zm18.33,6.67h-10a1.66,1.66,0,0,0-1.66,1.66v10A1.66,1.66,0,0,0,18.33,921h10A1.67,1.67,0,0,0,30,919.33v-10A1.66,1.66,0,0,0,28.33,907.67Zm-1.66,10H20V911h6.67ZM23.33,891A6.67,6.67,0,1,0,30,897.67,6.67,6.67,0,0,0,23.33,891Zm0,10a3.34,3.34,0,1,1,3.34-3.33A3.34,3.34,0,0,1,23.33,901ZM6.67,907.67a6.67,6.67,0,1,0,6.66,6.66A6.67,6.67,0,0,0,6.67,907.67Zm0,10A3.34,3.34,0,1,1,10,914.33,3.35,3.35,0,0,1,6.67,917.67Z"/><path class="cls-1" d="M44.67,891h-10A1.67,1.67,0,0,0,33,892.67v10a1.66,1.66,0,0,0,1.67,1.66h10a1.66,1.66,0,0,0,1.66-1.66v-10A1.66,1.66,0,0,0,44.67,891ZM43,901H36.33v-6.67H43Zm18.33,6.67h-10a1.66,1.66,0,0,0-1.66,1.66v10A1.66,1.66,0,0,0,51.33,921h10A1.67,1.67,0,0,0,63,919.33v-10A1.66,1.66,0,0,0,61.33,907.67Zm-1.66,10H53V911h6.67ZM56.33,891A6.67,6.67,0,1,0,63,897.67,6.67,6.67,0,0,0,56.33,891Zm0,10a3.34,3.34,0,1,1,3.34-3.33A3.34,3.34,0,0,1,56.33,901Zm-16.66,6.67a6.67,6.67,0,1,0,6.66,6.66A6.67,6.67,0,0,0,39.67,907.67Zm0,10A3.34,3.34,0,1,1,43,914.33,3.35,3.35,0,0,1,39.67,917.67Z"/><path class="cls-1" d="M11.67,924h-10A1.67,1.67,0,0,0,0,925.67v10a1.66,1.66,0,0,0,1.67,1.66h10a1.66,1.66,0,0,0,1.66-1.66v-10A1.66,1.66,0,0,0,11.67,924ZM10,934H3.33v-6.67H10Zm18.33,6.67h-10a1.66,1.66,0,0,0-1.66,1.66v10A1.66,1.66,0,0,0,18.33,954h10A1.67,1.67,0,0,0,30,952.33v-10A1.66,1.66,0,0,0,28.33,940.67Zm-1.66,10H20V944h6.67ZM23.33,924A6.67,6.67,0,1,0,30,930.67,6.67,6.67,0,0,0,23.33,924Zm0,10a3.34,3.34,0,1,1,3.34-3.33A3.34,3.34,0,0,1,23.33,934ZM6.67,940.67a6.67,6.67,0,1,0,6.66,6.66A6.67,6.67,0,0,0,6.67,940.67Zm0,10A3.34,3.34,0,1,1,10,947.33,3.35,3.35,0,0,1,6.67,950.67Z"/><path class="cls-1" d="M44.67,924h-10A1.67,1.67,0,0,0,33,925.67v10a1.66,1.66,0,0,0,1.67,1.66h10a1.66,1.66,0,0,0,1.66-1.66v-10A1.66,1.66,0,0,0,44.67,924ZM43,934H36.33v-6.67H43Zm18.33,6.67h-10a1.66,1.66,0,0,0-1.66,1.66v10A1.66,1.66,0,0,0,51.33,954h10A1.67,1.67,0,0,0,63,952.33v-10A1.66,1.66,0,0,0,61.33,940.67Zm-1.66,10H53V944h6.67ZM56.33,924A6.67,6.67,0,1,0,63,930.67,6.67,6.67,0,0,0,56.33,924Zm0,10a3.34,3.34,0,1,1,3.34-3.33A3.34,3.34,0,0,1,56.33,934Zm-16.66,6.67a6.67,6.67,0,1,0,6.66,6.66A6.67,6.67,0,0,0,39.67,940.67Zm0,10A3.34,3.34,0,1,1,43,947.33,3.35,3.35,0,0,1,39.67,950.67Z"/><path class="cls-1" d="M11.67,957h-10A1.67,1.67,0,0,0,0,958.67v10a1.66,1.66,0,0,0,1.67,1.66h10a1.66,1.66,0,0,0,1.66-1.66v-10A1.66,1.66,0,0,0,11.67,957ZM10,967H3.33v-6.67H10Zm18.33,6.67h-10a1.66,1.66,0,0,0-1.66,1.66v10A1.66,1.66,0,0,0,18.33,987h10A1.67,1.67,0,0,0,30,985.33v-10A1.66,1.66,0,0,0,28.33,973.67Zm-1.66,10H20V977h6.67ZM23.33,957A6.67,6.67,0,1,0,30,963.67,6.67,6.67,0,0,0,23.33,957Zm0,10a3.34,3.34,0,1,1,3.34-3.33A3.34,3.34,0,0,1,23.33,967ZM6.67,973.67a6.67,6.67,0,1,0,6.66,6.66A6.67,6.67,0,0,0,6.67,973.67Zm0,10A3.34,3.34,0,1,1,10,980.33,3.35,3.35,0,0,1,6.67,983.67Z"/><path class="cls-1" d="M44.67,957h-10A1.67,1.67,0,0,0,33,958.67v10a1.66,1.66,0,0,0,1.67,1.66h10a1.66,1.66,0,0,0,1.66-1.66v-10A1.66,1.66,0,0,0,44.67,957ZM43,967H36.33v-6.67H43Zm18.33,6.67h-10a1.66,1.66,0,0,0-1.66,1.66v10A1.66,1.66,0,0,0,51.33,987h10A1.67,1.67,0,0,0,63,985.33v-10A1.66,1.66,0,0,0,61.33,973.67Zm-1.66,10H53V977h6.67ZM56.33,957A6.67,6.67,0,1,0,63,963.67,6.67,6.67,0,0,0,56.33,957Zm0,10a3.34,3.34,0,1,1,3.34-3.33A3.34,3.34,0,0,1,56.33,967Zm-16.66,6.67a6.67,6.67,0,1,0,6.66,6.66A6.67,6.67,0,0,0,39.67,973.67Zm0,10A3.34,3.34,0,1,1,43,980.33,3.35,3.35,0,0,1,39.67,983.67Z"/><path class="cls-1" d="M11.67,990h-10A1.67,1.67,0,0,0,0,991.67v10a1.66,1.66,0,0,0,1.67,1.66h10a1.66,1.66,0,0,0,1.66-1.66v-10A1.66,1.66,0,0,0,11.67,990ZM10,1000H3.33v-6.67H10Zm18.33,6.67h-10a1.66,1.66,0,0,0-1.66,1.66v10a1.66,1.66,0,0,0,1.66,1.67h10a1.67,1.67,0,0,0,1.67-1.67v-10A1.66,1.66,0,0,0,28.33,1006.67Zm-1.66,10H20V1010h6.67ZM23.33,990A6.67,6.67,0,1,0,30,996.67,6.67,6.67,0,0,0,23.33,990Zm0,10a3.34,3.34,0,1,1,3.34-3.33A3.34,3.34,0,0,1,23.33,1000Zm-16.66,6.67a6.67,6.67,0,1,0,6.66,6.66A6.67,6.67,0,0,0,6.67,1006.67Zm0,10a3.34,3.34,0,1,1,3.33-3.34A3.35,3.35,0,0,1,6.67,1016.67Z"/><path class="cls-1" d="M44.67,990h-10A1.67,1.67,0,0,0,33,991.67v10a1.66,1.66,0,0,0,1.67,1.66h10a1.66,1.66,0,0,0,1.66-1.66v-10A1.66,1.66,0,0,0,44.67,990ZM43,1000H36.33v-6.67H43Zm18.33,6.67h-10a1.66,1.66,0,0,0-1.66,1.66v10a1.66,1.66,0,0,0,1.66,1.67h10a1.67,1.67,0,0,0,1.67-1.67v-10A1.66,1.66,0,0,0,61.33,1006.67Zm-1.66,10H53V1010h6.67ZM56.33,990A6.67,6.67,0,1,0,63,996.67,6.67,6.67,0,0,0,56.33,990Zm0,10a3.34,3.34,0,1,1,3.34-3.33A3.34,3.34,0,0,1,56.33,1000Zm-16.66,6.67a6.67,6.67,0,1,0,6.66,6.66A6.67,6.67,0,0,0,39.67,1006.67Zm0,10a3.34,3.34,0,1,1,3.33-3.34A3.35,3.35,0,0,1,39.67,1016.67Z"/><path class="cls-1" d="M11.67,1023h-10A1.67,1.67,0,0,0,0,1024.67v10a1.66,1.66,0,0,0,1.67,1.66h10a1.66,1.66,0,0,0,1.66-1.66v-10A1.66,1.66,0,0,0,11.67,1023ZM10,1033H3.33v-6.67H10Zm18.33,6.67h-10a1.66,1.66,0,0,0-1.66,1.66v10a1.66,1.66,0,0,0,1.66,1.67h10a1.67,1.67,0,0,0,1.67-1.67v-10A1.66,1.66,0,0,0,28.33,1039.67Zm-1.66,10H20V1043h6.67ZM23.33,1023a6.67,6.67,0,1,0,6.67,6.67A6.67,6.67,0,0,0,23.33,1023Zm0,10a3.34,3.34,0,1,1,3.34-3.33A3.34,3.34,0,0,1,23.33,1033Zm-16.66,6.67a6.67,6.67,0,1,0,6.66,6.66A6.67,6.67,0,0,0,6.67,1039.67Zm0,10a3.34,3.34,0,1,1,3.33-3.34A3.35,3.35,0,0,1,6.67,1049.67Z"/><path class="cls-1" d="M44.67,1023h-10a1.67,1.67,0,0,0-1.67,1.67v10a1.66,1.66,0,0,0,1.67,1.66h10a1.66,1.66,0,0,0,1.66-1.66v-10A1.66,1.66,0,0,0,44.67,1023ZM43,1033H36.33v-6.67H43Zm18.33,6.67h-10a1.66,1.66,0,0,0-1.66,1.66v10a1.66,1.66,0,0,0,1.66,1.67h10a1.67,1.67,0,0,0,1.67-1.67v-10A1.66,1.66,0,0,0,61.33,1039.67Zm-1.66,10H53V1043h6.67ZM56.33,1023a6.67,6.67,0,1,0,6.67,6.67A6.67,6.67,0,0,0,56.33,1023Zm0,10a3.34,3.34,0,1,1,3.34-3.33A3.34,3.34,0,0,1,56.33,1033Zm-16.66,6.67a6.67,6.67,0,1,0,6.66,6.66A6.67,6.67,0,0,0,39.67,1039.67Zm0,10a3.34,3.34,0,1,1,3.33-3.34A3.35,3.35,0,0,1,39.67,1049.67Z"/><path class="cls-1" d="M11.67,1056h-10A1.67,1.67,0,0,0,0,1057.67v10a1.66,1.66,0,0,0,1.67,1.66h10a1.66,1.66,0,0,0,1.66-1.66v-10A1.66,1.66,0,0,0,11.67,1056ZM10,1066H3.33v-6.67H10Zm18.33,6.67h-10a1.66,1.66,0,0,0-1.66,1.66v10a1.66,1.66,0,0,0,1.66,1.67h10a1.67,1.67,0,0,0,1.67-1.67v-10A1.66,1.66,0,0,0,28.33,1072.67Zm-1.66,10H20V1076h6.67ZM23.33,1056a6.67,6.67,0,1,0,6.67,6.67A6.67,6.67,0,0,0,23.33,1056Zm0,10a3.34,3.34,0,1,1,3.34-3.33A3.34,3.34,0,0,1,23.33,1066Zm-16.66,6.67a6.67,6.67,0,1,0,6.66,6.66A6.67,6.67,0,0,0,6.67,1072.67Zm0,10a3.34,3.34,0,1,1,3.33-3.34A3.35,3.35,0,0,1,6.67,1082.67Z"/><path class="cls-1" d="M44.67,1056h-10a1.67,1.67,0,0,0-1.67,1.67v10a1.66,1.66,0,0,0,1.67,1.66h10a1.66,1.66,0,0,0,1.66-1.66v-10A1.66,1.66,0,0,0,44.67,1056ZM43,1066H36.33v-6.67H43Zm18.33,6.67h-10a1.66,1.66,0,0,0-1.66,1.66v10a1.66,1.66,0,0,0,1.66,1.67h10a1.67,1.67,0,0,0,1.67-1.67v-10A1.66,1.66,0,0,0,61.33,1072.67Zm-1.66,10H53V1076h6.67ZM56.33,1056a6.67,6.67,0,1,0,6.67,6.67A6.67,6.67,0,0,0,56.33,1056Zm0,10a3.34,3.34,0,1,1,3.34-3.33A3.34,3.34,0,0,1,56.33,1066Zm-16.66,6.67a6.67,6.67,0,1,0,6.66,6.66A6.67,6.67,0,0,0,39.67,1072.67Zm0,10a3.34,3.34,0,1,1,3.33-3.34A3.35,3.35,0,0,1,39.67,1082.67Z"/></svg>